<?xml version="1.0" standalone="no"?>
<!DOCTYPE svg PUBLIC "-//W3C//DTD SVG 1.1//EN" "http://www.w3.org/Graphics/SVG/1.1/DTD/svg11.dtd" >
<svg xmlns="http://www.w3.org/2000/svg">
<metadata></metadata>
<defs>
<font id="myriad_probold_semicondensed" horiz-adv-x="1056" >
<font-face units-per-em="2048" ascent="1536" descent="-512" />
<missing-glyph horiz-adv-x="387" />
<glyph unicode="ffj" horiz-adv-x="1000" d="M0 1000h1000v-1000h-1000v1000z" />
<glyph unicode="&#xfb01;" horiz-adv-x="1142" d="M23 784v217h133v46q0 88 32.5 163.5t95 132t155.5 89t216 32.5q78 0 155 -15t122 -40l-53 -227q-35 16 -90.5 30.5t-124.5 14.5q-119 0 -165 -55.5t-46 -135.5v-35h575v-1001h-299v784h-274v-784h-299v784h-133z" />
<glyph unicode="&#xfb02;" horiz-adv-x="1142" d="M23 784v217h133v41q0 78 35.5 165t107.5 147q66 53 155 81.5t208 28.5q109 0 202.5 -20.5t163.5 -54.5v-1389h-299v1221q-35 18 -108 18q-90 0 -129 -57.5t-39 -137.5v-43h170v-217h-168v-784h-299v784h-133z" />
<glyph unicode="&#xfb03;" horiz-adv-x="1746" d="M23 784v217h133v17q0 94 31.5 180t101.5 145q49 43 116.5 69t159.5 26q51 0 94 -10.5t72 -20.5l-67 -217q-16 8 -38 13t-44 5q-53 0 -88 -34q-23 -27 -32 -66t-9 -80v-27h305v46q0 88 32.5 163.5t95 132t156 89t215.5 32.5q74 0 147 -13t120 -36l-56 -227 q-37 16 -88 27.5t-112 11.5q-59 0 -100.5 -14.5t-66 -41t-35.5 -61.5t-11 -74v-35h577v-1001h-299v784h-276v-784h-299v784h-303v-784h-299v784h-133z" />
<glyph unicode="&#xfb04;" horiz-adv-x="1746" d="M23 784v217h133v15q0 102 32.5 184t98.5 139q115 98 295 99q45 0 86 -8.5t67 -18.5l-65 -221q-39 16 -86 16q-53 0 -88 -35q-25 -27 -34 -63.5t-9 -77.5v-29h305v41q0 78 35.5 165t107.5 147q66 53 155 81.5t210 28.5q109 0 203 -20.5t163 -54.5v-1389h-299v1221 q-35 18 -108 18q-92 0 -131 -57.5t-39 -137.5v-43h172v-217h-170v-784h-299v784h-303v-784h-299v784h-133z" />
<glyph horiz-adv-x="2048" />
<glyph horiz-adv-x="2048" />
<glyph unicode="&#xd;" horiz-adv-x="387" />
<glyph unicode=" "  horiz-adv-x="387" />
<glyph unicode="&#x09;" horiz-adv-x="387" />
<glyph unicode="&#xa0;" horiz-adv-x="387" />
<glyph unicode="!" horiz-adv-x="528" d="M90 160q0 80 49 130t125 50q78 0 126 -50t48 -130q0 -78 -47 -129t-127 -51h-2q-76 0 -124 51t-48 129zM106 1380h316l-41 -927h-234z" />
<glyph unicode="&#x22;" horiz-adv-x="772" d="M72 1413h258l-45 -549h-168zM444 1413h258l-45 -549h-168z" />
<glyph unicode="#" horiz-adv-x="1050" d="M61 377v178h189l33 231h-166v179h192l49 366h172l-49 -366h174l52 366h172l-50 -366h158v-179h-184l-31 -231h164v-178h-193l-51 -377h-174l51 377h-174l-51 -377h-174l53 377h-162zM424 555h174l31 231h-174z" />
<glyph unicode="$" d="M113 98l55 232q59 -33 136 -56.5t167 -23.5q84 0 133 34.5t49 94.5q0 59 -48 102t-152 84q-152 61 -241 146.5t-89 224.5q0 129 83 224t232 130v199h193v-182q92 -4 156.5 -22.5t111.5 -41.5l-55 -221q-37 16 -99.5 39.5t-160.5 23.5q-92 0 -129 -35.5t-37 -82.5 q0 -51 49 -89t172 -92q168 -70 238.5 -159.5t70.5 -220.5q0 -137 -87 -237.5t-247 -131.5v-215h-192v198q-92 4 -174 27t-135 51z" />
<glyph unicode="%" horiz-adv-x="1665" d="M49 936q0 86 23.5 162t68.5 132t107.5 89t142.5 33h2q82 0 143.5 -32t102.5 -87t61.5 -127t20.5 -152q0 -104 -27.5 -183t-75 -132t-108.5 -80t-127 -27q-74 0 -135.5 30t-105.5 84t-68.5 128t-24.5 162zM266 942q-2 -113 29 -179.5t92 -66.5q59 0 88 64.5t29 181.5 q0 106 -25.5 177t-91.5 71h-2q-61 0 -90 -69.5t-29 -178.5zM375 -23l751 1375h160l-751 -1375h-160zM942 385q0 86 23.5 163t68.5 133t107.5 89t142.5 33h2q82 0 143.5 -32t103.5 -87t62.5 -128t20.5 -153q0 -104 -27.5 -183t-75 -131t-109 -78.5t-126.5 -26.5 q-74 0 -136.5 29.5t-106.5 83t-68.5 127t-24.5 161.5zM1159 393q-2 -113 30 -180.5t93 -67.5q59 0 88 65.5t29 182.5q0 106 -26.5 177t-92.5 71h-2q-61 0 -90 -69.5t-29 -178.5z" />
<glyph unicode="&#x26;" horiz-adv-x="1296" d="M55 369q0 135 66.5 231t183.5 160v6q-47 57 -75.5 130t-28.5 146q0 68 25.5 131.5t74.5 114.5t123 82t170 31q76 0 140.5 -22.5t112.5 -64.5t74.5 -100.5t26.5 -132.5q0 -102 -59.5 -190t-204.5 -170v-8q55 -66 115.5 -141.5t107.5 -127.5q41 66 65.5 155t35.5 177h262 q-23 -154 -75 -285t-138 -227q53 -59 109.5 -125.5t119.5 -138.5h-340q-23 23 -42 45.5t-42 50.5q-66 -53 -155 -84.5t-199 -31.5q-115 0 -200 32.5t-141 87t-84 124t-28 145.5zM336 414q0 -88 57.5 -152.5t157.5 -64.5h2q57 0 101 19.5t75 47.5q-61 66 -138 157t-155 183 q-39 -29 -69.5 -76t-30.5 -114zM467 1065q0 -53 21.5 -101.5t64.5 -99.5q72 51 106.5 99.5t34.5 109.5q0 25 -6 48.5t-19.5 44t-34 32.5t-50.5 12h-2q-55 0 -85 -43t-30 -102z" />
<glyph unicode="'" horiz-adv-x="399" d="M72 1413h258l-45 -549h-168z" />
<glyph unicode="(" horiz-adv-x="608" d="M104 586q2 150 22.5 275.5t54.5 229t75 184.5t82 140h211q-88 -141 -149.5 -346t-61.5 -485q0 -272 61.5 -477t149.5 -349h-211q-41 59 -83 140.5t-76 184.5t-54.5 229t-20.5 274z" />
<glyph unicode=")" horiz-adv-x="608" d="M59 -242q88 143 149.5 349t61.5 483q0 274 -61.5 478t-149.5 347h211q41 -59 83 -139t76 -182.5t54.5 -229.5t20.5 -276q-2 -150 -22.5 -276t-54.5 -228t-75 -183t-82 -143h-211z" />
<glyph unicode="*" horiz-adv-x="886" d="M51 903v201l307 -62l2 7l-210 249l178 103l112 -305h4l115 305l174 -101l-215 -253l2 -5l316 62v-201l-318 55l-2 -6l217 -247l-178 -103l-115 311l-4 -4l-119 -307l-167 103l215 251l-5 5z" />
<glyph unicode="+" horiz-adv-x="1220" d="M82 455v184h432v451h193v-451h432v-184h-432v-455h-193v455h-432z" />
<glyph unicode="," horiz-adv-x="516" d="M8 -248q47 135 86 285.5t60 286.5l303 20q-49 -152 -115 -304.5t-137 -268.5z" />
<glyph unicode="-" horiz-adv-x="620" d="M61 444v203h498v-203h-498z" />
<glyph unicode="." horiz-adv-x="516" d="M102 166q0 82 50.5 134t126.5 52t125 -50t49 -136q0 -84 -48.5 -135t-128.5 -51h-2q-74 0 -123 51t-49 135z" />
<glyph unicode="/" horiz-adv-x="647" d="M10 -82l451 1483h196l-450 -1483h-197z" />
<glyph unicode="0" d="M61 662q0 145 29 271t87.5 219t147.5 146.5t210 53.5q129 0 217 -57.5t143 -151.5t78.5 -217t23.5 -254q0 -162 -30.5 -290t-91 -217t-147.5 -137t-200 -48h-2q-123 0 -211 55t-144 148t-83 217t-27 262zM360 668q-2 -233 43.5 -344t126.5 -111h2q166 0 166 455 q0 221 -40 335.5t-126 114.5q-80 0 -126 -110.5t-46 -339.5z" />
<glyph unicode="1" d="M150 1169l339 162h250v-1331h-290v1061h-5l-243 -119z" />
<glyph unicode="2" d="M76 0v186l160 158q96 94 169.5 172t125 147.5t78 132t26.5 124.5q0 82 -48 136t-155 54q-80 0 -146.5 -30.5t-113.5 -65.5l-76 217q66 49 168.5 85t224.5 36q113 0 196 -32t138.5 -87t82 -130t26.5 -159q0 -86 -27.5 -165t-75 -151.5t-109 -141t-128.5 -132.5l-111 -100 v-4h475v-250h-880z" />
<glyph unicode="3" d="M70 61l55 228q41 -23 117.5 -47.5t158.5 -24.5q117 0 174.5 52.5t57.5 129.5q0 51 -21.5 89t-58.5 62.5t-84 36t-98 11.5h-101v215h95q39 0 79.5 8t74.5 26.5t55.5 49.5t21.5 74q0 63 -46 103t-136 40q-72 0 -138.5 -23.5t-107.5 -48.5l-55 218q53 35 154.5 63.5 t215.5 28.5q100 0 178 -27t130.5 -71t79 -103t26.5 -127q0 -104 -57.5 -184t-169.5 -121v-4q55 -12 104 -41t86 -71t58.5 -97t21.5 -121q0 -84 -35 -157.5t-101.5 -129t-161.5 -87t-216 -31.5q-117 0 -210 24.5t-146 56.5z" />
<glyph unicode="4" d="M41 317v197l481 817h344v-786h152v-228h-152v-317h-276v317h-549zM311 545h279v289q0 57 3 117.5t7 121.5h-6q-29 -63 -56.5 -119.5t-58.5 -115.5l-168 -289v-4z" />
<glyph unicode="5" d="M76 49l53 225q41 -20 113.5 -39.5t152.5 -19.5q49 0 94.5 13.5t81 39t56 65.5t20.5 93q0 227 -348 227q-47 0 -84 -3t-72 -7l84 688h678v-248h-467l-28 -217q18 4 34.5 4h36.5q80 0 168 -22.5t154 -73.5q70 -53 108.5 -133t38.5 -192q0 -96 -36.5 -181.5t-105.5 -149 t-169 -101t-227 -37.5q-106 0 -194.5 20t-141.5 49z" />
<glyph unicode="6" d="M57 549q0 199 62.5 350.5t167.5 251.5q90 86 205.5 133t250.5 57q45 6 76 6.5t53 0.5v-234q-27 2 -55.5 0t-62.5 -6q-92 -10 -160 -40t-116 -75t-76.5 -100t-41.5 -115h7q47 49 110.5 78t149.5 29q78 0 147.5 -29t120.5 -84t81 -135t30 -180q0 -96 -32 -182.5t-92.5 -152 t-144.5 -104t-188 -38.5q-123 0 -215 44t-153.5 120.5t-92.5 180t-31 224.5zM354 471q2 -55 14.5 -105.5t36 -88t58.5 -59t82 -21.5h2q76 0 117 70.5t41 176.5q0 45 -11.5 86t-33 73t-54.5 50.5t-78 18.5q-53 0 -96 -31t-63 -78q-14 -27 -15 -92z" />
<glyph unicode="7" d="M94 1081v250h877v-188l-510 -1143h-309l505 1077v4h-563z" />
<glyph unicode="8" d="M59 348q0 123 61.5 207t164.5 133l-2 4q-92 53 -137.5 130t-45.5 163q0 84 34 151.5t93.5 115.5t140.5 74t173 26h2q102 0 180 -29t129 -76t76.5 -107.5t25.5 -123.5q0 -82 -43 -162t-143 -133v-6q96 -41 163.5 -125t67.5 -211q0 -90 -34.5 -164t-98 -126t-150.5 -80.5 t-194 -28.5q-115 0 -202 30.5t-145 81.5t-87 117.5t-29 138.5zM358 379q0 -39 11.5 -74t34 -61.5t54 -43t72.5 -16.5h2q78 0 123 50.5t45 125.5q0 90 -56 145.5t-138 80.5q-70 -25 -109 -79t-39 -128zM381 995q0 -70 48 -114.5t124 -73.5q51 18 87 66.5t36 109.5 q0 63 -35 115.5t-111 52.5h-2q-74 0 -110.5 -47t-36.5 -109z" />
<glyph unicode="9" d="M57 877q0 94 34 180t95.5 151.5t148.5 104.5t193 39q119 0 206 -44t145.5 -121t87 -179.5t28.5 -221.5q0 -215 -62.5 -368.5t-166.5 -251.5q-86 -82 -201.5 -126t-255.5 -54q-37 -4 -71.5 -4t-63.5 2v235q33 -2 60.5 -1t70.5 5q61 4 122.5 25.5t109.5 56.5 q59 43 99 108.5t56 143.5l-4 2q-41 -43 -101.5 -67.5t-144.5 -24.5q-80 0 -149.5 28.5t-121.5 81t-83 128t-31 172.5zM354 897q0 -90 43 -155.5t127 -65.5q55 0 94 24.5t58 57.5q8 16 11 36.5t3 61.5q0 57 -9 107.5t-30.5 88.5t-54.5 60.5t-78 22.5h-2q-72 0 -118 -63.5 t-44 -174.5z" />
<glyph unicode=":" horiz-adv-x="516" d="M104 162q0 78 49.5 130t125.5 52t124 -50t48 -132q0 -80 -47.5 -131t-127.5 -51h-2q-74 0 -122 51t-48 131zM104 825q0 78 49.5 130.5t125.5 52.5t124 -50.5t48 -132.5q0 -80 -47.5 -131t-127.5 -51h-2q-74 0 -122 51t-48 131z" />
<glyph unicode=";" horiz-adv-x="516" d="M10 -250q47 135 86 285.5t60 286.5l299 20q-49 -152 -115 -303.5t-137 -269.5zM115 825q0 78 49 130.5t125 52.5t124 -50.5t48 -132.5q0 -80 -47 -131t-127 -51h-2q-74 0 -122 51t-48 131z" />
<glyph unicode="&#x3c;" horiz-adv-x="1220" d="M119 465v162l983 463v-213l-737 -330v-4l737 -328v-215z" />
<glyph unicode="=" horiz-adv-x="1220" d="M82 250v184h1057v-184h-1057zM82 662v184h1057v-184h-1057z" />
<glyph unicode="&#x3e;" horiz-adv-x="1220" d="M119 0v213l768 330v4l-768 330v213l983 -451v-188z" />
<glyph unicode="?" horiz-adv-x="843" d="M86 1327q49 31 131 54.5t180 23.5q100 0 173 -27.5t119 -71.5t67.5 -101.5t21.5 -117.5q0 -57 -15 -105t-40 -91t-54.5 -81t-58.5 -73q-53 -63 -77.5 -123.5t-22.5 -130.5v-39h-258l-4 48q-12 162 117 329q49 61 79.5 113.5t30.5 105.5t-36 87t-109 36q-47 0 -95.5 -13 t-87.5 -40zM203 160q0 80 50 130t124 50q78 0 126 -50t48 -130q0 -78 -47 -129t-127 -51h-2q-76 0 -124 51t-48 129z" />
<glyph unicode="@" horiz-adv-x="1484" d="M92 426q0 156 52.5 298t149.5 250.5t232.5 173t300.5 64.5q131 0 237.5 -44t182.5 -120.5t117 -181t41 -225.5q0 -119 -27.5 -213t-77 -159.5t-117 -100.5t-147.5 -35q-74 0 -118 41t-50 121h-6q-43 -78 -108.5 -120t-143.5 -42q-94 0 -153.5 68.5t-59.5 191.5 q0 94 33 182.5t92.5 155t145.5 106.5t192 40q63 0 127 -13.5t100 -34.5l-63 -378q-33 -188 53 -189q33 0 66 21.5t60.5 66.5t45 115t17.5 162q0 100 -29 186t-87 149.5t-144 99.5t-201 36q-113 0 -215.5 -46t-181 -132t-125.5 -208t-47 -272q0 -129 36.5 -228t103 -167 t157 -102.5t198.5 -34.5q76 0 150.5 16.5t138.5 50.5l33 -108q-88 -43 -171 -59.5t-188 -16.5q-119 0 -227.5 43t-191 124t-133 198.5t-50.5 269.5zM594 414q0 -57 22.5 -90t69.5 -33q27 0 53.5 17.5t48 46t38 66.5t22.5 81l35 217q-10 4 -25.5 6t-34.5 2q-47 0 -88 -24.5 t-72.5 -67.5t-50 -100.5t-18.5 -120.5z" />
<glyph unicode="A" horiz-adv-x="1222" d="M29 0l385 1380h383l381 -1380h-314l-92 342h-352l-86 -342h-305zM459 567h272l-74 293q-16 61 -31.5 139t-29.5 142h-4q-14 -63 -28.5 -142t-31.5 -141z" />
<glyph unicode="B" horiz-adv-x="1163" d="M131 6v1356q61 12 162.5 20.5t212.5 8.5q129 0 222 -17.5t167 -64.5q68 -41 107.5 -108.5t39.5 -158.5q0 -92 -53 -173t-168 -124v-6q121 -33 193.5 -120t72.5 -216q0 -94 -35.5 -165.5t-95.5 -122.5q-72 -63 -194.5 -96t-319.5 -33q-104 0 -182 5t-129 15zM428 215 q20 -4 44 -5t56 -1q49 0 94.5 11t79 36t53 63.5t19.5 92.5q0 104 -74.5 152t-179.5 48h-92v-397zM428 827h88q111 0 169 50.5t58 128.5t-51 123t-149 45q-43 0 -71 -3.5t-44 -7.5v-336z" />
<glyph unicode="C" horiz-adv-x="1095" d="M66 672q0 182 56 318t151.5 227.5t221.5 136.5t265 45q106 0 183 -17.5t112 -35.5l-60 -240q-39 18 -94 31.5t-127 13.5q-82 0 -153.5 -27.5t-125 -85t-84 -144.5t-30.5 -206q0 -221 105.5 -336.5t289.5 -115.5q59 0 119.5 10t101.5 26l41 -239q-39 -18 -119.5 -34.5 t-189.5 -16.5q-166 0 -290 52t-206.5 145t-124.5 219t-42 274z" />
<glyph unicode="D" horiz-adv-x="1300" d="M131 6v1356q76 12 173 20.5t204 8.5q178 0 299 -35t211 -107q102 -80 159.5 -210t57.5 -320q0 -205 -59.5 -344t-157.5 -223q-98 -86 -241.5 -126t-330.5 -40q-104 0 -183 6t-132 14zM430 227q16 -4 42 -4h48q88 0 162 28t126 87t82 153.5t30 223.5q0 215 -98.5 328.5 t-276.5 113.5q-41 0 -68.5 -3t-46.5 -7v-920z" />
<glyph unicode="E" horiz-adv-x="1007" d="M131 0v1380h774v-247h-475v-297h451v-244h-451v-344h504v-248h-803z" />
<glyph unicode="F" horiz-adv-x="997" d="M131 0v1380h770v-247h-471v-330h440v-244h-440v-559h-299z" />
<glyph unicode="G" horiz-adv-x="1267" d="M66 678q2 178 58 312t154.5 224.5t230.5 135.5t284 45q119 0 204.5 -18.5t130.5 -41.5l-59 -243q-49 23 -112.5 37t-157.5 14q-90 0 -166 -26.5t-133.5 -83t-89 -143.5t-31.5 -206q0 -113 28.5 -198t80 -142t121 -86t151.5 -29q90 0 123 17v305h-187v235h471v-731 q-66 -23 -177 -46t-230 -23q-170 0 -293 42t-211 128q-94 90 -144 225q-46 127 -46 279v18z" />
<glyph unicode="H" horiz-adv-x="1304" d="M131 0v1380h299v-538h444v538h300v-1380h-300v578h-444v-578h-299z" />
<glyph unicode="I" horiz-adv-x="561" d="M131 0v1380h299v-1380h-299z" />
<glyph unicode="J" horiz-adv-x="770" d="M-6 8l31 244q29 -10 62.5 -15.5t74.5 -5.5q43 0 78.5 11.5t60.5 40t39 78t14 124.5v895h299v-893q0 -147 -33.5 -245.5t-94 -156.5t-145.5 -81.5t-187 -23.5q-49 0 -104.5 7t-94.5 21z" />
<glyph unicode="K" horiz-adv-x="1163" d="M131 0v1380h297v-614h6q39 82 86 160l273 454h358l-414 -592l432 -788h-342l-299 588l-100 -135v-453h-297z" />
<glyph unicode="L" horiz-adv-x="964" d="M131 0v1380h299v-1128h490v-252h-789z" />
<glyph unicode="M" horiz-adv-x="1603" d="M94 0l92 1380h375l127 -471q33 -123 61.5 -246.5t51.5 -244.5h6q25 119 54.5 244.5t62.5 246.5l135 471h371l77 -1380h-284l-23 514q-4 119 -8 257t-4 280h-4q-29 -127 -65 -260.5t-70 -243.5l-154 -524h-227l-138 520q-31 111 -60.5 245t-51.5 263h-6 q-4 -133 -10.5 -275.5t-10.5 -265.5l-26 -510h-271z" />
<glyph unicode="N" horiz-adv-x="1306" d="M131 0v1380h328l264 -516q53 -100 107.5 -221t95.5 -231h6q-12 129 -19.5 278.5t-7.5 317.5v372h271v-1380h-302l-270 530q-55 104 -112.5 228.5t-98.5 236.5h-6q6 -129 10 -279.5t4 -332.5v-383h-270z" />
<glyph unicode="O" horiz-adv-x="1323" d="M66 684q0 152 42 283t120.5 227t190 151.5t253.5 55.5q150 0 260 -57.5t183 -153.5t109 -222t36 -261q0 -178 -44.5 -313.5t-124 -227.5t-191.5 -139t-247 -47h-2q-141 0 -250.5 55t-184.5 150.5t-112.5 224.5t-37.5 274zM381 690q0 -98 18.5 -184t54 -148.5t89 -98.5 t121.5 -36h2q68 0 120 36t87.5 98.5t53 149.5t17.5 189q0 92 -17.5 176t-52 146.5t-88 100.5t-122.5 38q-70 0 -123.5 -37t-89 -100.5t-53 -148.5t-17.5 -181z" />
<glyph unicode="P" horiz-adv-x="1114" d="M131 0v1362q68 12 162 20.5t217 8.5q137 0 238.5 -26t171.5 -85q66 -53 101.5 -134t35.5 -179q0 -104 -32 -187.5t-91 -142.5q-76 -72 -184.5 -106.5t-231.5 -34.5q-53 0 -90 6v-502h-297zM428 735q33 -6 86 -6q117 0 181.5 60.5t64.5 162.5q0 94 -56.5 150.5 t-166.5 56.5q-74 0 -109 -10v-414z" />
<glyph unicode="Q" horiz-adv-x="1323" d="M66 682q0 150 42 282t120.5 228t191 152.5t256.5 56.5q147 0 257.5 -57.5t182.5 -153.5t108 -221t36 -260q0 -121 -23 -221.5t-61.5 -179.5t-92 -134t-114.5 -84v-8q76 -27 156.5 -47.5t156.5 -38.5l-90 -229q-129 41 -248 88t-239 100q-45 20 -87 25q-113 6 -213 53 t-175.5 135t-119.5 216t-44 298zM381 690q0 -100 18.5 -186t54 -148.5t89 -97.5t121.5 -35h2q68 0 120 35t86.5 98.5t53 150.5t18.5 189q0 94 -17.5 178t-52 147.5t-87 99.5t-121.5 36q-68 0 -121 -37t-90 -99.5t-55.5 -147.5t-18.5 -183z" />
<glyph unicode="R" horiz-adv-x="1138" d="M131 0v1362q72 12 170 20.5t209 8.5q141 0 245.5 -24t176.5 -83q123 -102 123 -291q0 -63 -19.5 -117.5t-51.5 -98.5t-75 -75.5t-90 -50.5v-6q72 -29 114 -95.5t66 -166.5q14 -57 28.5 -116.5t28 -112t26 -93.5t22.5 -61h-307q-16 29 -39 114t-49 210q-25 129 -71 174 t-132 45h-78v-543h-297zM428 762h100q109 0 168.5 56t59.5 149q0 195 -211 198q-45 0 -73 -3t-44 -7v-393z" />
<glyph unicode="S" horiz-adv-x="1015" d="M74 57l55 250q57 -31 140 -54.5t171 -23.5q104 0 156.5 42t52.5 110t-51 112t-164 91q-164 70 -254 169t-90 234q0 86 34 162t97.5 131t155.5 87t209 32q104 0 181 -18.5t130 -45.5l-61 -243q-37 18 -101.5 38.5t-152.5 20.5q-98 0 -144.5 -42t-46.5 -95 q0 -33 13.5 -57.5t41 -47t72.5 -45t109 -51.5q170 -72 246.5 -172t76.5 -235q0 -90 -32.5 -167t-99 -134.5t-165 -90t-227.5 -32.5q-109 0 -205 23.5t-147 51.5z" />
<glyph unicode="T" horiz-adv-x="1026" d="M29 1122v258h970v-258h-337v-1122h-300v1122h-333z" />
<glyph unicode="U" horiz-adv-x="1284" d="M127 584v796h299v-825q0 -172 57.5 -252t157.5 -80q104 0 160.5 78t56.5 254v825h299v-798q0 -305 -136 -453.5t-388 -148.5q-248 0 -377 147t-129 457z" />
<glyph unicode="V" horiz-adv-x="1189" d="M14 1380h328l147 -587q31 -121 58.5 -241t50.5 -249h4q23 125 50.5 247t58.5 241l149 589h322l-420 -1380h-344z" />
<glyph unicode="W" horiz-adv-x="1689" d="M29 1380h317l94 -563q20 -123 37 -247t33 -236h6q16 119 39 238.5t47 248.5l113 559h297l104 -571q23 -121 39 -233.5t31 -235.5h6q14 123 32.5 240.5t39.5 240.5l98 559h301l-322 -1380h-319l-107 551q-20 102 -36.5 207.5t-28.5 226.5h-4q-18 -121 -36.5 -225.5 t-41.5 -208.5l-121 -551h-319z" />
<glyph unicode="X" horiz-adv-x="1128" d="M20 0l357 700l-344 680h336l108 -252q27 -61 48.5 -114t43.5 -113h4q23 66 42.5 117t41.5 110l103 252h330l-351 -678l369 -702h-336l-115 252q-33 68 -57.5 126t-48.5 120h-4q-23 -61 -45.5 -121t-50.5 -127l-101 -250h-330z" />
<glyph unicode="Y" horiz-adv-x="1110" d="M4 1380h336l125 -331q29 -72 51.5 -136.5t44.5 -136.5h4q20 68 43 134.5t49 140.5l123 329h330l-412 -815v-565h-299v555z" />
<glyph unicode="Z" horiz-adv-x="1064" d="M41 0v166l592 956v6h-539v252h912v-186l-576 -936v-6h582v-252h-971z" />
<glyph unicode="[" horiz-adv-x="608" d="M129 -229v1634h406v-172h-189v-1290h189v-172h-406z" />
<glyph unicode="\" horiz-adv-x="616" d="M6 1401h197l403 -1483h-196z" />
<glyph unicode="]" horiz-adv-x="608" d="M74 -57h188v1290h-188v172h405v-1634h-405v172z" />
<glyph unicode="^" horiz-adv-x="1220" d="M88 362l430 969h184l431 -969h-218l-303 734h-8l-303 -734h-213z" />
<glyph unicode="_" horiz-adv-x="1024" d="M0 -154h1024v-102h-1024v102z" />
<glyph unicode="`" horiz-adv-x="614" d="M25 1430h270l166 -304h-199z" />
<glyph unicode="a" horiz-adv-x="1015" d="M53 285q0 98 41 169.5t115 119t174 70t219 22.5v16q0 23 -7 46.5t-26.5 41.5t-52.5 30.5t-84 12.5q-72 0 -139.5 -20.5t-116.5 -49.5l-53 193q49 29 142 57.5t222 28.5q123 0 203 -35t127 -94t65.5 -136t18.5 -163v-356q0 -68 3 -130.5t14 -107.5h-269l-18 100h-4 q-47 -59 -116 -89.5t-153 -30.5q-72 0 -128 24.5t-95 66.5t-60.5 97t-21.5 117zM344 315q0 -63 34 -92.5t81 -29.5q51 0 91 29.5t56 76.5q4 10 4 23.5v25.5v129q-53 0 -101 -8t-85 -26.5t-58.5 -49.5t-21.5 -78z" />
<glyph unicode="b" horiz-adv-x="1130" d="M106 0q4 55 6.5 136t2.5 163v1145h299v-557h4q41 61 109.5 98t164.5 37q86 0 154.5 -37t118 -102.5t76 -157.5t26.5 -203q0 -135 -35 -236.5t-93 -169t-133 -102t-157 -34.5t-151.5 33.5t-118.5 119.5h-4l-15 -133h-254zM414 406q0 -33 6 -58q16 -59 59 -95t99 -36 q90 0 139 76t49 213q0 123 -46 201.5t-142 78.5q-55 0 -99.5 -37.5t-56.5 -97.5q-4 -12 -6 -27.5t-2 -31.5v-186z" />
<glyph unicode="c" horiz-adv-x="843" d="M66 489q0 113 35.5 209.5t104 168t169 112.5t229.5 41q59 0 114.5 -10.5t96.5 -26.5l-45 -223q-25 10 -61.5 18t-90.5 8q-117 0 -183 -79.5t-66 -204.5q0 -137 71.5 -211t180.5 -74q92 0 155 29l33 -223q-35 -16 -101.5 -28.5t-144.5 -12.5q-115 0 -206 34.5t-156.5 100 t-100 160t-34.5 212.5z" />
<glyph unicode="d" horiz-adv-x="1128" d="M66 494q0 127 33.5 225t90 165.5t130 102.5t155.5 35q86 0 146.5 -30.5t89.5 -80.5h4v533h299v-1145q0 -82 2 -163t6 -136h-264l-13 137h-4q-41 -76 -117.5 -116.5t-164.5 -40.5q-86 0 -159 37.5t-125 106.5t-80.5 163t-28.5 207zM367 498q0 -131 50 -205t136 -74 q55 0 97 34t59 97q6 27 6 68v170v28.5t-4 28.5q-10 57 -51.5 99t-104.5 42q-47 0 -83 -22.5t-59.5 -61t-34.5 -92t-11 -112.5z" />
<glyph unicode="e" horiz-adv-x="1013" d="M66 485q0 104 30.5 201.5t90 171.5t147.5 119t205 45q111 0 188.5 -40t128.5 -107.5t74.5 -156.5t23.5 -188q0 -45 -3 -77.5t-7 -51.5h-592q2 -51 23.5 -88t57.5 -61.5t82 -35.5t97 -11q72 0 133.5 10t116.5 29l41 -205q-72 -29 -158 -43t-180 -14q-240 0 -369.5 134 t-129.5 369zM350 608h328q0 33 -7 70t-24.5 67.5t-48.5 51t-76 20.5q-43 0 -74.5 -20.5t-52 -51t-32 -67.5t-13.5 -70z" />
<glyph unicode="f" horiz-adv-x="665" d="M23 784v217h133v39q0 90 26.5 177.5t91.5 148.5q55 53 126 75.5t141 22.5q53 0 93 -6t71 -16l-19 -230q-18 6 -41.5 10.5t-52.5 4.5q-74 0 -106.5 -52.5t-32.5 -123.5v-50h192v-217h-190v-784h-299v784h-133z" />
<glyph unicode="g" horiz-adv-x="1112" d="M66 494q0 123 33.5 220t90 165.5t133 105.5t162.5 37q92 0 152.5 -38t95.5 -97h4l13 114h258q-4 -55 -6.5 -126.5t-2.5 -178.5v-561q0 -150 -32.5 -258t-110.5 -180q-74 -66 -173 -92.5t-210 -26.5q-92 0 -177 17.5t-151 50.5l60 227q45 -25 113.5 -45.5t146.5 -20.5 q111 0 175.5 62.5t64.5 196.5v63h-5q-39 -59 -102 -90t-141 -31q-90 0 -163 38t-124 103.5t-77.5 153.5t-26.5 191zM367 502q0 -121 48 -196t134 -75q49 0 87 30t54 79q6 18 8 39.5t2 42.5v184q0 33 -6 62q-16 53 -52 86.5t-91 33.5q-82 0 -133 -76.5t-51 -209.5z" />
<glyph unicode="h" horiz-adv-x="1120" d="M115 0v1444h299v-559h4q23 31 50.5 56.5t61.5 41.5q72 39 156 39q145 0 233.5 -106.5t88.5 -323.5v-592h-299v567q0 92 -32 151.5t-112 59.5q-53 0 -89 -29.5t-52 -74.5q-4 -14 -7 -35t-3 -37v-602h-299z" />
<glyph unicode="i" horiz-adv-x="530" d="M106 1276q0 68 43.5 111t114.5 43q70 0 112 -43.5t44 -110.5q0 -66 -43 -109t-115 -43h-2q-70 0 -112 43t-42 109zM115 0v1001h299v-1001h-299z" />
<glyph unicode="j" horiz-adv-x="555" d="M-80 -197q53 4 96 18.5t72 45.5q16 16 27.5 39.5t17.5 59.5t9 87t3 121v827h299v-895q0 -166 -34.5 -265t-104.5 -160q-66 -57 -162 -84t-196 -27zM137 1276q0 68 43 111t115 43q70 0 112 -43.5t44 -110.5q0 -66 -43 -109t-115 -43h-2q-70 0 -112 43t-42 109z" />
<glyph unicode="k" horiz-adv-x="1032" d="M115 0v1444h299v-871h4q16 35 32.5 67t32.5 60l181 301h350l-326 -411l365 -590h-359l-211 412l-69 -97v-315h-299z" />
<glyph unicode="l" horiz-adv-x="532" d="M115 0v1444h299v-1444h-299z" />
<glyph unicode="m" horiz-adv-x="1650" d="M106 1001h254l15 -129h6q16 25 42 51.5t60.5 48t79.5 36t101 14.5q94 0 160.5 -43t97.5 -119h4q27 37 57.5 66.5t65.5 50.5q37 23 79.5 34t96.5 11q141 0 227 -103.5t86 -314.5v-604h-293v559q0 102 -29.5 161.5t-101.5 59.5q-49 0 -82 -28.5t-49 -73.5q-10 -35 -10 -78 v-600h-293v582q0 84 -28.5 141t-100.5 57q-51 0 -84 -31.5t-49 -72.5q-6 -16 -8 -37t-2 -41v-598h-293v686q0 92 -2 169t-7 146z" />
<glyph unicode="n" horiz-adv-x="1120" d="M106 1001h259l14 -131h6q16 25 43 52.5t62.5 49t83 36t102.5 14.5q152 0 242 -104.5t90 -309.5v-608h-299v578q0 86 -32 143t-110 57q-55 0 -90 -32.5t-51 -75.5q-12 -31 -12 -82v-588h-299v686q0 92 -2 169t-7 146z" />
<glyph unicode="o" horiz-adv-x="1091" d="M66 496q0 125 36.5 222t102 164.5t156 103.5t196.5 36t192.5 -37t147.5 -104.5t95 -162.5t34 -210q0 -143 -43 -243.5t-111.5 -164t-154.5 -92t-172 -28.5h-2q-104 0 -191.5 34.5t-151 101t-99 163t-35.5 217.5zM371 502q0 -66 11 -121t33.5 -96t55.5 -64.5t78 -23.5h2 q41 0 72.5 23.5t53 65.5t33 97t11.5 119q0 55 -9.5 109.5t-29.5 97.5t-53 69.5t-80 26.5q-49 0 -84 -26.5t-55.5 -69.5t-29.5 -97.5t-9 -109.5z" />
<glyph unicode="p" horiz-adv-x="1130" d="M106 1001h261l14 -133h4q47 74 123 114t174 40q82 0 151.5 -37t121 -104.5t81 -161.5t29.5 -209q0 -135 -36 -235.5t-94 -166t-133 -97t-153 -31.5q-82 0 -142.5 31.5t-88.5 76.5h-4v-489h-299v1073q0 96 -2 177t-7 152zM414 410q0 -45 8 -70q16 -59 58 -93t95 -34 q92 0 140.5 81t48.5 206q0 127 -46 204.5t-138 77.5q-55 0 -100.5 -37.5t-57.5 -97.5q-8 -25 -8 -59v-178z" />
<glyph unicode="q" horiz-adv-x="1128" d="M66 485q0 131 34.5 231.5t92 168t132 102.5t152.5 35q82 0 145.5 -33t104.5 -100l4 -2l10 114h279q-2 -72 -4 -148.5t-2 -156.5v-1097h-299v516h-4q-41 -66 -107.5 -100.5t-159.5 -34.5q-78 0 -147.5 36.5t-120.5 102t-80.5 159t-29.5 207.5zM367 500q0 -129 49 -206 t137 -77q53 0 95 34t59 91q4 16 6 33.5t2 34.5v188q0 29 -6 53q-12 55 -53.5 94t-100.5 39q-94 0 -141 -78.5t-47 -205.5z" />
<glyph unicode="r" horiz-adv-x="724" d="M106 1001h256l13 -174h8q37 102 109.5 148.5t140.5 46.5q20 0 33.5 -1t29.5 -5v-283q-16 4 -34.5 5t-43.5 1q-72 0 -126 -38.5t-70 -114.5q-8 -27 -8 -78v-508h-299v680q0 100 -2 178t-7 143z" />
<glyph unicode="s" horiz-adv-x="821" d="M59 49l54 213q39 -23 108.5 -45t132.5 -22q127 0 127 84q0 41 -28.5 65.5t-110.5 56.5q-145 55 -202.5 133t-57.5 162q0 70 26.5 129.5t77 103.5t122 68.5t159.5 24.5q80 0 146.5 -16.5t111.5 -38.5l-53 -209q-33 16 -84 33.5t-109 17.5q-55 0 -84.5 -22.5t-29.5 -59.5 q0 -35 31.5 -59.5t117.5 -59.5q133 -53 191.5 -127.5t58.5 -177.5q0 -145 -105.5 -233t-304.5 -88q-88 0 -165.5 18t-129.5 49z" />
<glyph unicode="t" horiz-adv-x="716" d="M31 784v217h129v185l295 84v-269h215v-217h-215v-391q0 -92 27.5 -130t88.5 -38q29 0 46.5 2t39.5 6l2 -227q-29 -10 -79 -17t-111 -7q-72 0 -129 21.5t-94 57.5q-43 43 -64.5 113t-21.5 180v430h-129z" />
<glyph unicode="u" horiz-adv-x="1114" d="M111 408v593h299v-548q0 -109 32.5 -169.5t106.5 -60.5q55 0 88 31t47 65q12 27 12 72v610h299v-684q0 -94 2 -172.5t7 -144.5h-259l-14 131h-6q-16 -25 -41 -51.5t-59.5 -49t-81.5 -36.5t-107 -14q-150 0 -237.5 102t-87.5 326z" />
<glyph unicode="v" horiz-adv-x="1003" d="M16 1001h322l119 -460q29 -125 51 -254h6q10 66 22.5 127t28.5 127l113 460h309l-342 -1001h-291z" />
<glyph unicode="w" horiz-adv-x="1466" d="M18 1001h310l71 -415q14 -80 27.5 -160t24.5 -162h4q14 82 32.5 164t34.5 154l103 419h233l96 -407q18 -86 36 -167t32 -163h4q10 80 22.5 163t28.5 169l78 405h293l-293 -1001h-272l-88 350q-18 74 -32.5 147.5t-29.5 166.5h-4q-12 -92 -27.5 -167t-33.5 -145l-97 -352 h-274z" />
<glyph unicode="x" horiz-adv-x="987" d="M8 0l305 508l-299 493h332l86 -170q20 -41 38.5 -79.5t35.5 -75.5h4q16 41 33.5 80t34.5 78l79 167h318l-299 -481l303 -520h-336l-90 182q-18 39 -35.5 77t-34.5 77h-4q-35 -80 -67 -154l-84 -182h-320z" />
<glyph unicode="y" horiz-adv-x="989" d="M12 1001h328l135 -501q10 -45 21.5 -92.5t21.5 -88.5h6q10 41 19.5 89.5t19.5 91.5l111 501h311l-223 -694q-43 -127 -82 -222t-77 -169t-76 -127t-81 -94q-76 -72 -151.5 -104.5t-126.5 -39.5l-70 252q61 14 135 64q33 20 64 54t51 69q16 27 17 45q0 12 -13 47z" />
<glyph unicode="z" horiz-adv-x="886" d="M43 0v176l295 410q37 47 70.5 89t68.5 83v4h-399v239h753v-186l-282 -393q-37 -47 -73 -93t-70 -85v-4h440v-240h-803z" />
<glyph unicode="{" horiz-adv-x="608" d="M49 510v158q49 2 79 14t45 31.5t20.5 42t5.5 45.5q0 39 -3 79t-8 81q-4 41 -8 81.5t-4 81.5q0 145 83 213t228 68h62v-170h-35q-66 -4 -93.5 -41t-27.5 -102q0 -31 2 -61t6 -62q4 -33 7.5 -66t3.5 -69q2 -111 -41 -166.5t-127 -75.5v-4q84 -20 127 -74.5t41 -167.5 q0 -39 -2 -72.5t-7 -66.5q-4 -33 -7 -61.5t-3 -57.5q0 -66 25.5 -104.5t97.5 -42.5h33v-170h-64q-68 0 -124 14t-98 48t-64.5 88t-22.5 134q0 39 3 80t7 82t8.5 81t4.5 79q0 20 -5.5 42.5t-20.5 42t-45 33t-79 15.5z" />
<glyph unicode="|" horiz-adv-x="538" d="M164 -512v2048h213v-2048h-213z" />
<glyph unicode="}" horiz-adv-x="608" d="M61 -59h33q72 4 97.5 43t25.5 104q0 29 -3 57.5t-7 61.5t-7 66.5t-3 72.5q-2 113 41 167t127 75v4q-84 20 -127 75.5t-41 166.5q0 70 12 135q4 33 6 62.5t2 60.5q0 66 -27.5 102.5t-93.5 40.5h-35v170h62q145 0 228 -67.5t83 -213.5q0 -41 -4 -82t-8 -81q-4 -41 -8 -81 t-4 -79q0 -23 5 -45.5t20.5 -42t45 -31.5t78.5 -14v-158q-49 -2 -78.5 -15.5t-45 -33t-20.5 -42t-5 -42.5q0 -39 4 -79t8 -81l8 -82t4 -80q0 -80 -22.5 -134t-64.5 -88t-98 -48t-124 -14h-64v170z" />
<glyph unicode="~" horiz-adv-x="1220" d="M96 399q0 100 21.5 171t60.5 116t90 64.5t111 19.5q74 0 136.5 -25.5t146.5 -72.5q70 -41 111.5 -61.5t78.5 -20.5q39 0 59.5 37t24.5 129h188q4 -102 -14 -173t-54 -116t-87 -65.5t-111 -20.5q-72 0 -134 23.5t-146 72.5q-72 45 -117 67.5t-80 22.5q-41 0 -66.5 -34.5 t-29.5 -133.5h-189z" />
<glyph unicode="&#xa1;" horiz-adv-x="528" d="M90 829q0 80 49 130.5t125 50.5h2q76 0 124 -50.5t48 -130.5q0 -78 -47 -129t-127 -51q-78 0 -126 51.5t-48 128.5zM106 -391l41 926h234l41 -926h-316z" />
<glyph unicode="&#xa2;" d="M141 668q0 92 27 175t77 148.5t122.5 112.5t164.5 65v199h193v-188q47 -4 94 -13.5t84 -25.5l-43 -221q-35 16 -78 25t-96 9q-113 0 -177.5 -77.5t-64.5 -200.5q0 -68 19.5 -119t53.5 -87t79 -53.5t96 -17.5q59 0 103.5 9.5t85.5 25.5l34 -217q-35 -16 -84 -27.5 t-108 -15.5v-197h-193v203q-174 27 -280 152q-51 61 -80 146t-29 190z" />
<glyph unicode="&#xa3;" d="M96 0v166q43 18 82 49t68.5 71t47 86t17.5 95q0 25 -1 46.5t-5 43.5h-188v203h153q-8 41 -13 85t-5 89q0 92 30.5 169t88 132t138.5 86t181 31q78 0 132.5 -14.5t86.5 -30.5l-47 -230q-29 14 -66.5 23.5t-88.5 9.5q-49 0 -83 -15.5t-54.5 -40t-30 -57t-9.5 -69.5 q0 -45 5.5 -86t15.5 -82h260v-203h-233q2 -41 -2.5 -79t-16.5 -77q-14 -41 -38.5 -78.5t-61.5 -72.5v-4h504v-246h-867z" />
<glyph unicode="&#xa4;" d="M25 1077l129 135l149 -170q92 76 225 76h2q68 0 125.5 -18.5t102.5 -52.5l149 165l127 -133l-172 -157q23 -43 41.5 -101.5t18.5 -136.5q0 -84 -18.5 -144.5t-45.5 -101.5l168 -164l-127 -129l-145 172q-47 -41 -108.5 -60t-121.5 -19q-59 0 -120.5 19t-104.5 56 l-141 -168l-127 129l164 158q-27 43 -46.5 103.5t-19.5 140.5q0 84 20.5 143.5t45.5 102.5zM360 678q0 -117 51.5 -178.5t114.5 -61.5q68 0 116 61.5t48 180.5q0 49 -11 92t-32.5 75t-51.5 51.5t-69 19.5h-2q-74 0 -119 -67t-45 -173z" />
<glyph unicode="&#xa5;" d="M4 1331h315l134 -340q23 -61 42 -116.5t35 -106.5h5q16 47 34.5 105.5t42.5 119.5l136 338h303l-320 -586h234v-143h-306v-129h306v-143h-306v-330h-278v330h-303v143h303v129h-303v143h233z" />
<glyph unicode="&#xa6;" horiz-adv-x="538" d="M164 356h213v-716h-213v716zM164 664v716h213v-716h-213z" />
<glyph unicode="&#xa7;" horiz-adv-x="1069" d="M84 655q0 66 40 134.5t124 115.5q-31 27 -54.5 76t-23.5 106q0 76 33 134.5t89 98.5t133 60.5t167 20.5q82 0 155.5 -14.5t137.5 -43.5l-47 -182q-43 20 -103.5 36.5t-142.5 16.5q-80 0 -124 -26.5t-44 -69.5q0 -51 47 -80.5t152 -64.5q76 -25 142 -54.5t115.5 -69.5 t77 -96.5t27.5 -131.5q0 -82 -38 -143.5t-101 -108.5q27 -23 54.5 -71t27.5 -114q0 -88 -39 -149.5t-100.5 -100t-137.5 -57t-149 -18.5q-90 0 -185.5 18.5t-166.5 63.5l55 186q20 -12 51 -26.5t68.5 -26t79.5 -19.5t88 -8q78 0 126 26.5t48 80.5q0 49 -48.5 82.5 t-160.5 72.5q-76 27 -143.5 56.5t-119 70.5t-81 94.5t-29.5 124.5zM311 705q0 -45 39 -82t131 -72q68 -27 127.5 -49.5t91.5 -38.5q25 16 41.5 46t16.5 62q0 43 -32 80t-103 66q-61 25 -130 50.5t-110 47.5q-31 -16 -51.5 -45t-20.5 -63v-2z" />
<glyph unicode="&#xa8;" horiz-adv-x="614" d="M-37 1284q0 59 41 99t100 40q55 0 94.5 -40t39.5 -99t-38 -100t-96 -41h-2q-59 0 -99 41t-40 100zM375 1284q0 59 40 99t99 40q57 0 96 -40t39 -99t-38 -100t-97 -41h-4q-57 0 -96 41t-39 100z" />
<glyph unicode="&#xa9;" horiz-adv-x="1386" d="M66 696q0 131 49 246t135 201t200.5 135t245.5 49h2q131 0 245 -49t198 -135t132 -201t48 -246q0 -133 -48 -248.5t-133 -201.5t-199 -135.5t-245 -49.5t-245.5 49.5t-200.5 135.5t-135 201.5t-49 248.5zM199 694q0 -109 38.5 -203t106.5 -163.5t158 -110.5t192 -41 t192.5 40t157 110.5t105.5 165t39 202.5q0 106 -39 201.5t-105.5 165t-156.5 110.5t-193 41h-2q-102 0 -192 -41t-157 -110.5t-105.5 -164.5t-38.5 -202zM348 684q0 88 32 158.5t87 120t128 76t155 26.5q37 0 71.5 -5t64 -13.5t52.5 -18.5t33 -18l-31 -111 q-18 10 -71.5 27.5t-120.5 17.5q-119 0 -187.5 -67.5t-68.5 -186.5q0 -113 68.5 -184.5t182.5 -71.5q61 0 114.5 13.5t88.5 33.5l29 -104q-53 -35 -116.5 -49.5t-133.5 -14.5q-90 0 -159.5 29t-118 79t-74 117.5t-25.5 145.5z" />
<glyph unicode="&#xaa;" horiz-adv-x="727" d="M66 731q0 61 27.5 106.5t77.5 75t119.5 44t151.5 14.5v14q0 8 -4 22.5t-17 27t-37 21.5t-62 9q-53 0 -96.5 -13.5t-73.5 -35.5l-39 131q41 23 104.5 42t142.5 19q80 0 134.5 -23.5t87 -63.5t47 -91t14.5 -106v-224q0 -43 2 -85t8 -72h-178l-12 67h-4q-35 -35 -82 -56.5 t-107 -21.5q-94 0 -149 56.5t-55 142.5zM260 750q0 -35 24.5 -56.5t59.5 -21.5q29 0 55.5 15t38.5 40q10 20 11 41v82q-74 0 -131.5 -21.5t-57.5 -78.5z" />
<glyph unicode="&#xab;" horiz-adv-x="901" d="M47 516l229 387h211l-237 -387l237 -387h-208zM424 516l229 387h211l-237 -387l237 -387h-209z" />
<glyph unicode="&#xac;" horiz-adv-x="1220" d="M82 680v184h1057v-647h-191v463h-866z" />
<glyph unicode="&#xad;" horiz-adv-x="620" d="M61 444v203h498v-203h-498z" />
<glyph unicode="&#xae;" horiz-adv-x="886" d="M90 1059q0 72 27.5 134t76 109.5t113 74t137.5 26.5h2q74 0 137.5 -26.5t110.5 -74t75 -110t28 -133.5q0 -72 -28 -135.5t-75 -110.5t-111.5 -74.5t-138.5 -27.5t-138 27.5t-112.5 74.5t-76 110.5t-27.5 135.5zM195 1057q0 -53 18 -101.5t52 -83t80 -55t99 -20.5 t98.5 20.5t79 55t52 83t18.5 103.5q0 53 -18.5 100t-52 82t-78.5 55.5t-99 20.5h-2q-53 0 -98 -20.5t-79 -55.5t-52 -82t-18 -102zM305 895v317q16 4 53 8.5t84 4.5q53 0 80 -7.5t45 -19.5q14 -10 23.5 -27.5t9.5 -42.5q0 -23 -19.5 -42t-52.5 -29v-4q47 -14 64 -82 q8 -35 13 -51.5t9 -24.5h-106q-8 10 -12 27.5t-11 40.5q-6 47 -53 47h-31v-115h-96zM406 1077h26q59 0 60 39q0 39 -56 39q-10 0 -18 -1t-12 -1v-76z" />
<glyph unicode="&#xaf;" horiz-adv-x="614" d="M63 1192v166h490v-166h-490z" />
<glyph unicode="&#xb0;" horiz-adv-x="686" d="M53 1112q0 61 23.5 113.5t63.5 91.5t93.5 61.5t112.5 22.5h2q66 0 119 -22.5t92 -61.5t59.5 -90t20.5 -109q0 -66 -24.5 -118t-65.5 -90t-94.5 -58.5t-110.5 -20.5q-63 0 -116.5 21.5t-92.5 59.5t-60.5 89.5t-21.5 110.5zM205 1112q0 -63 41 -106t100 -43q61 0 101 43 t40 108q0 59 -34.5 107.5t-106.5 48.5h-2q-59 0 -99 -47t-40 -111z" />
<glyph unicode="&#xb1;" horiz-adv-x="1220" d="M82 0v184h1057v-184h-1057zM82 641v184h432v355h193v-355h432v-184h-432v-360h-193v360h-432z" />
<glyph unicode="&#xb2;" horiz-adv-x="671" d="M27 891v110l116 115q104 102 164 169t60 134q0 49 -31 76t-84 27q-47 0 -89 -15.5t-73 -38.5l-57 150q47 35 117.5 58.5t158.5 23.5q76 0 131.5 -19.5t92 -53.5t54 -77t17.5 -92q0 -55 -19.5 -102t-51 -89t-72.5 -81t-84 -76l-45 -41v-4h284v-174h-589z" />
<glyph unicode="&#xb3;" horiz-adv-x="657" d="M16 932l41 155q29 -16 80 -32.5t103 -16.5q59 0 98 28t39 71q0 53 -51.5 80.5t-116.5 27.5h-51v135h45q25 0 52.5 4.5t51 14.5t37.5 26.5t14 40.5q0 35 -25.5 55.5t-76.5 20.5q-49 0 -94 -14.5t-74 -30.5l-39 143q41 25 109.5 42.5t148.5 17.5q141 0 210 -59.5t69 -139.5 q0 -66 -44 -113t-114 -71v-4q78 -10 132 -61.5t54 -125.5q0 -111 -95 -178t-257 -67q-76 0 -140.5 14t-105.5 37z" />
<glyph unicode="&#xb4;" horiz-adv-x="614" d="M172 1126l166 304h270l-237 -304h-199z" />
<glyph unicode="&#xb5;" horiz-adv-x="1118" d="M115 -31v1032h299v-581q0 -96 33.5 -148.5t99.5 -52.5q53 0 90 32t51 66q6 14 9 34t3 40v610h299v-686q0 -63 18.5 -86.5t61.5 -25.5l-18 -207q-39 -16 -105 -16q-84 0 -135 37.5t-76 109.5h-6q-23 -51 -78 -94t-141 -43q-37 0 -72.5 13t-58.5 42v-84q0 -45 1 -96 t4 -101.5t6 -94.5t10 -70h-267q-14 39 -21 142t-7 228z" />
<glyph unicode="&#xb6;" horiz-adv-x="1042" d="M57 920q-2 84 23.5 166.5t91.5 149.5t177.5 108.5t281.5 41.5q180 0 270 -20v-1464h-182v1304h-137v-1304h-183v639h-14q-37 0 -91 21.5t-106.5 67.5t-90.5 117.5t-40 172.5z" />
<glyph unicode="&#xb7;" horiz-adv-x="516" d="M84 537q0 82 50 134t126 52t125 -50t49 -136q0 -82 -48 -133.5t-128 -51.5h-2q-74 0 -123 51.5t-49 133.5z" />
<glyph unicode="&#xb8;" horiz-adv-x="614" d="M102 -377l41 115q27 -14 56.5 -22.5t54.5 -8.5q27 0 48.5 11.5t21.5 39.5q0 29 -37 48.5t-117 25.5l86 176h160l-56 -98q57 -8 101.5 -47t44.5 -101q0 -49 -20.5 -83.5t-54.5 -55t-77 -30t-90 -9.5t-90 11.5t-72 27.5z" />
<glyph unicode="&#xb9;" horiz-adv-x="577" d="M37 1593l221 97h197v-799h-226v612h-4l-155 -71z" />
<glyph unicode="&#xba;" horiz-adv-x="743" d="M53 866q0 80 24.5 142.5t67.5 107.5t101.5 68.5t126.5 23.5h2q74 0 131 -24.5t98 -68.5t62.5 -105.5t21.5 -132.5q0 -92 -27.5 -158t-72.5 -107t-102.5 -60.5t-116.5 -19.5q-68 0 -125.5 24t-100.5 67t-66.5 104t-23.5 139zM258 868q0 -78 28.5 -132t84.5 -54 q57 0 83.5 55.5t26.5 132.5q0 33 -6 67t-20.5 60.5t-35 44t-50.5 17.5h-2q-31 0 -51.5 -18.5t-34 -47t-18.5 -62.5t-5 -63z" />
<glyph unicode="&#xbb;" horiz-adv-x="901" d="M37 129l237 387l-237 387h207l233 -387l-231 -387h-209zM410 129l237 387l-237 387h206l234 -387l-232 -387h-208z" />
<glyph unicode="&#xbc;" horiz-adv-x="1601" d="M61 1245l222 96h196v-798h-225v612h-4l-156 -72zM319 -20l744 1372h160l-744 -1372h-160zM850 184v127l330 494h247v-471h103v-150h-103v-184h-206v184h-371zM1049 336l4 -2h168v147q0 41 2 77t6 71h-6q-16 -35 -31.5 -66t-34.5 -59z" />
<glyph unicode="&#xbd;" horiz-adv-x="1601" d="M39 1245l221 96h197v-798h-226v612h-4l-155 -72zM270 -20l742 1372h159l-739 -1372h-162zM932 0v115l117 114q104 100 163.5 166t59.5 133q0 47 -31 75t-84 28q-47 0 -89 -16.5t-73 -39.5l-57 152q47 35 117.5 58.5t158.5 23.5q76 0 131.5 -19.5t92.5 -53.5t54 -77 t17 -92q0 -55 -19.5 -102t-51 -89t-72.5 -81t-84 -76l-45 -41v-4h285v-174h-590z" />
<glyph unicode="&#xbe;" horiz-adv-x="1601" d="M55 584l41 153q29 -16 80 -31.5t103 -15.5q59 0 98 27.5t39 70.5q0 53 -51.5 80t-116.5 27h-51v135h45q25 0 52.5 4t51 15.5t37.5 28t14 40.5q0 35 -24.5 55.5t-77.5 20.5q-49 0 -94 -15.5t-74 -31.5l-39 145q41 25 109.5 42.5t148.5 17.5q141 0 210 -59.5t69 -139.5 q0 -68 -44 -115t-114 -69v-4q78 -10 132 -60.5t54 -128.5q0 -109 -95 -176.5t-257 -67.5q-76 0 -140.5 14.5t-105.5 37.5zM377 -20l741 1372h160l-741 -1372h-160zM866 184v127l332 494h248v-471h102v-150h-102v-184h-207v184h-373zM1065 336l4 -2h170v147q0 41 2 77t6 71 h-6q-16 -35 -31.5 -66t-33.5 -59z" />
<glyph unicode="&#xbf;" horiz-adv-x="843" d="M72 -94q0 57 15 105t40 91t54.5 81t58.5 73q53 61 77.5 121.5t22.5 130.5v39h256l4 -47q12 -162 -117 -328q-49 -61 -79.5 -113.5t-30.5 -105.5t35.5 -87t109.5 -36q47 0 95.5 13.5t86.5 39.5l62 -217q-49 -29 -131 -53.5t-180 -24.5q-100 0 -172 27t-118 72t-67.5 102 t-21.5 117zM299 829q0 80 49 130.5t125 50.5h2q76 0 124 -50.5t48 -130.5q0 -78 -47 -129t-125 -51t-127 51.5t-49 128.5z" />
<glyph unicode="&#xc0;" horiz-adv-x="1222" d="M29 0l385 1380h383l381 -1380h-314l-92 342h-352l-86 -342h-305zM268 1700h312l172 -244h-232zM459 567h272l-74 293q-16 61 -31.5 139t-29.5 142h-4q-14 -63 -28.5 -142t-31.5 -141z" />
<glyph unicode="&#xc1;" horiz-adv-x="1222" d="M29 0l385 1380h383l381 -1380h-314l-92 342h-352l-86 -342h-305zM459 567h272l-74 293q-16 61 -31.5 139t-29.5 142h-4q-14 -63 -28.5 -142t-31.5 -141zM469 1454l170 246h311l-250 -246h-231z" />
<glyph unicode="&#xc2;" horiz-adv-x="1222" d="M29 0l385 1380h383l381 -1380h-314l-92 342h-352l-86 -342h-305zM305 1454l193 244h227l197 -244h-213l-95 121h-4l-96 -121h-209zM459 567h272l-74 293q-16 61 -31.5 139t-29.5 142h-4q-14 -63 -28.5 -142t-31.5 -141z" />
<glyph unicode="&#xc3;" horiz-adv-x="1222" d="M29 0l385 1380h385l379 -1380h-314l-90 342h-354l-86 -342h-305zM346 1464q-4 127 38 190.5t114 63.5q41 0 69.5 -11t55.5 -26q25 -16 46 -27.5t40 -11.5q25 0 36 17.5t17 66.5h133q4 -135 -37 -191t-119 -56q-39 0 -69.5 10t-55.5 24q-27 14 -45 24.5t-39 10.5 q-41 0 -47 -84h-137zM461 567h272l-74 293q-16 61 -31.5 139t-29.5 142h-6q-14 -63 -28.5 -142t-31.5 -141z" />
<glyph unicode="&#xc4;" horiz-adv-x="1222" d="M31 0l385 1380h381l381 -1380h-314l-90 342h-354l-86 -342h-303zM281 1595q0 59 39.5 98.5t95.5 39.5q55 0 93 -39t38 -99q0 -57 -38 -97t-93 -40h-2q-55 0 -94 40t-39 97zM461 567h272l-74 293q-16 61 -31.5 139t-29.5 142h-6q-14 -63 -28.5 -142t-31.5 -141zM692 1595 q0 59 39 98.5t96 39.5q55 0 93 -39t38 -99q0 -57 -37.5 -97t-93.5 -40h-2q-57 0 -95 40t-38 97z" />
<glyph unicode="&#xc5;" horiz-adv-x="1222" d="M29 0l385 1380h383l381 -1380h-314l-92 342h-352l-86 -342h-305zM377 1630q0 80 58.5 140.5t170.5 60.5h2q117 0 172.5 -58.5t55.5 -140.5t-59.5 -139t-170.5 -57q-113 0 -171 58t-58 136zM459 567h274l-74 293q-16 61 -32.5 139t-30.5 142h-4q-14 -63 -28.5 -142 t-31.5 -141zM518 1630q0 -35 22.5 -63.5t63.5 -28.5q45 0 66.5 27.5t21.5 66.5q0 37 -22.5 67t-65.5 30h-2q-43 0 -63.5 -31t-20.5 -68z" />
<glyph unicode="&#xc6;" horiz-adv-x="1609" d="M0 0l537 1380h962v-247h-506l31 -310h465v-243h-430l37 -332h465v-248h-725l-41 377h-359l-133 -377h-303zM518 614h246l-33 336q-6 51 -12 108.5t-10 112.5h-7q-18 -61 -37.5 -126.5t-33.5 -112.5z" />
<glyph unicode="&#xc7;" horiz-adv-x="1101" d="M66 672q0 182 56 318t151.5 227.5t221.5 136.5t265 45q106 0 183 -17.5t112 -35.5l-60 -240q-41 18 -95 31.5t-126 13.5q-82 0 -153.5 -27.5t-125 -85t-84 -144.5t-30.5 -206q0 -223 105.5 -339t289.5 -116q59 0 119.5 10.5t101.5 26.5l41 -237q-37 -18 -110.5 -33.5 t-171.5 -17.5l-39 -72q57 -14 101 -54t44 -108q0 -53 -21.5 -88t-55 -57.5t-76.5 -31.5t-86 -9q-45 0 -90.5 9t-77.5 30l39 123q23 -12 54.5 -20.5t57.5 -8.5q29 0 50.5 11t21.5 40q0 59 -156 78l80 168q-135 20 -235.5 78.5t-167 147.5t-100 204t-33.5 250z" />
<glyph unicode="&#xc8;" horiz-adv-x="1007" d="M131 0v1380h774v-247h-475v-297h451v-244h-451v-344h504v-248h-803zM199 1700h311l170 -244h-231z" />
<glyph unicode="&#xc9;" horiz-adv-x="1007" d="M131 0v1380h774v-247h-475v-297h451v-244h-451v-344h504v-248h-803zM385 1454l172 246h311l-250 -246h-233z" />
<glyph unicode="&#xca;" horiz-adv-x="1007" d="M131 0v1380h774v-247h-475v-297h451v-244h-451v-344h504v-248h-803zM221 1454l195 244h225l197 -244h-211l-97 121h-4l-96 -121h-209z" />
<glyph unicode="&#xcb;" horiz-adv-x="1007" d="M131 0v1380h774v-247h-475v-297h451v-244h-451v-344h504v-248h-803zM178 1597q0 59 40 98.5t95 39.5t93 -39t38 -99q0 -57 -37.5 -97t-93.5 -40h-2q-55 0 -94 40t-39 97zM590 1597q0 59 39 98.5t96 39.5q55 0 93 -39t38 -99q0 -57 -38 -97t-93 -40h-2q-57 0 -95 40 t-38 97z" />
<glyph unicode="&#xcc;" horiz-adv-x="561" d="M-59 1700h311l170 -244h-232zM131 0v1380h299v-1380h-299z" />
<glyph unicode="&#xcd;" horiz-adv-x="561" d="M131 0v1380h299v-1380h-299zM135 1454l172 246h309l-249 -246h-232z" />
<glyph unicode="&#xce;" horiz-adv-x="561" d="M-27 1454l195 244h225l197 -244h-211l-96 121h-4l-97 -121h-209zM131 0v1380h299v-1380h-299z" />
<glyph unicode="&#xcf;" horiz-adv-x="561" d="M-57 1597q0 59 40 98.5t95 39.5t93 -39t38 -99q0 -57 -38 -97t-93 -40h-2q-55 0 -94 40t-39 97zM131 0v1380h299v-1380h-299zM352 1597q0 59 40 98.5t97 39.5q55 0 93.5 -39t38.5 -99q0 -57 -38 -97t-94 -40h-2q-57 0 -96 40t-39 97z" />
<glyph unicode="&#xd0;" horiz-adv-x="1312" d="M4 592v227h139v545q76 12 173.5 20.5t203.5 8.5q178 0 299 -34t211 -106q102 -80 159.5 -213t57.5 -321q0 -205 -59.5 -344t-157.5 -225t-241.5 -126t-329.5 -40q-104 0 -183 6t-133 10v592h-139zM442 225q16 -4 42 -4h48q90 0 164 27.5t126 88t81 154t29 224.5 q0 223 -97.5 333.5t-277.5 110.5q-41 0 -68.5 -3t-46.5 -7v-330h238v-227h-238v-367z" />
<glyph unicode="&#xd1;" horiz-adv-x="1306" d="M131 0v1380h328l264 -516q53 -100 107.5 -221t95.5 -231h6q-14 129 -21.5 278.5t-7.5 317.5v372h273v-1380h-304l-268 530q-53 104 -110.5 228.5t-100.5 236.5h-6q8 -129 12 -279.5t4 -332.5v-383h-272zM385 1464q-4 127 38 190.5t114 63.5q39 0 67.5 -11t54.5 -26 q25 -16 46.5 -27.5t39.5 -11.5q25 0 36.5 17.5t17.5 66.5h135q4 -135 -38 -191t-120 -56q-39 0 -68.5 10t-56.5 24q-25 14 -43 24.5t-39 10.5q-41 0 -47 -84h-137z" />
<glyph unicode="&#xd2;" horiz-adv-x="1323" d="M66 684q0 152 42 283t120.5 227t190 151.5t253.5 55.5q150 0 260 -57.5t183 -153.5t109 -222t36 -261q0 -178 -44.5 -313.5t-124 -227.5t-191.5 -139t-247 -47h-2q-141 0 -250.5 55t-184.5 150.5t-112.5 224.5t-37.5 274zM326 1702h311l170 -244h-232zM381 690 q0 -98 18.5 -184t54 -148.5t89 -98.5t121.5 -36h2q68 0 120 36t87.5 98.5t53 149.5t17.5 189q0 92 -17.5 176t-52 146.5t-88 100.5t-122.5 38q-70 0 -123.5 -37t-89 -100.5t-53 -148.5t-17.5 -181z" />
<glyph unicode="&#xd3;" horiz-adv-x="1323" d="M66 684q0 152 42 283t120.5 227t190 151.5t253.5 55.5q150 0 260 -57.5t183 -153.5t109 -222t36 -261q0 -178 -44.5 -313.5t-124 -227.5t-191.5 -139t-247 -47h-2q-141 0 -250.5 55t-184.5 150.5t-112.5 224.5t-37.5 274zM381 690q0 -98 18.5 -184t54 -148.5t89 -98.5 t121.5 -36h2q68 0 120 36t87.5 98.5t53 149.5t17.5 189q0 92 -17.5 176t-52 146.5t-88 100.5t-122.5 38q-70 0 -123.5 -37t-89 -100.5t-53 -148.5t-17.5 -181zM528 1456l172 246h312l-252 -246h-232z" />
<glyph unicode="&#xd4;" horiz-adv-x="1323" d="M66 684q0 152 42 283t120.5 227t190 151.5t253.5 55.5q150 0 260 -57.5t183 -153.5t109 -222t36 -261q0 -178 -44.5 -313.5t-124 -227.5t-191.5 -139t-247 -47h-2q-141 0 -250.5 55t-184.5 150.5t-112.5 224.5t-37.5 274zM354 1454l195 244h225l197 -244h-211l-96 121h-5 l-94 -121h-211zM381 690q0 -98 18.5 -184t54 -148.5t89 -98.5t121.5 -36h2q68 0 120 36t87.5 98.5t53 149.5t17.5 189q0 92 -17.5 176t-52 146.5t-88 100.5t-122.5 38q-70 0 -123.5 -37t-89 -100.5t-53 -148.5t-17.5 -181z" />
<glyph unicode="&#xd5;" horiz-adv-x="1323" d="M66 684q0 152 42 283t120.5 227t190 151.5t253.5 55.5q150 0 260 -57.5t183 -153.5t109 -222t36 -261q0 -178 -44.5 -313.5t-124 -227.5t-191.5 -139t-247 -47h-2q-141 0 -250.5 55t-184.5 150.5t-112.5 224.5t-37.5 274zM381 690q0 -98 18.5 -184t54 -148.5t89 -98.5 t121.5 -36h2q68 0 120 36t86.5 98.5t53 149.5t18.5 189q0 92 -17.5 176t-53 146.5t-88 100.5t-121.5 38q-70 0 -123.5 -37t-89 -100.5t-53 -148.5t-17.5 -181zM389 1462q-4 127 38 190.5t114 63.5q39 0 67.5 -11t55.5 -28q25 -16 46 -27.5t40 -11.5q25 0 36 17.5t17 66.5 h133q4 -135 -37 -191t-119 -56q-39 0 -68.5 10t-56.5 26q-25 14 -43 24.5t-39 10.5q-41 0 -47 -84h-137z" />
<glyph unicode="&#xd6;" horiz-adv-x="1323" d="M66 684q0 152 42 283t120.5 227t190 151.5t253.5 55.5q150 0 260 -57.5t183 -153.5t109 -222t36 -261q0 -178 -44.5 -313.5t-124 -227.5t-191.5 -139t-247 -47h-2q-141 0 -250.5 55t-184.5 150.5t-112.5 224.5t-37.5 274zM324 1597q0 59 38.5 98.5t94.5 39.5q55 0 93 -39 t38 -99q0 -57 -38 -97t-93 -40h-2q-55 0 -93 40t-38 97zM379 690q0 -98 18.5 -184t54 -148.5t89 -98.5t121.5 -36h2q68 0 120 36t87.5 98.5t53 149.5t17.5 189q0 92 -17.5 176t-52 146.5t-87 100.5t-121.5 38q-70 0 -123.5 -37t-89 -100.5t-54 -148.5t-18.5 -181zM733 1597 q0 59 39 98.5t96 39.5q55 0 94 -39t39 -99q0 -57 -38.5 -97t-94.5 -40h-2q-57 0 -95 40t-38 97z" />
<glyph unicode="&#xd7;" horiz-adv-x="1220" d="M82 133l399 406l-399 407l127 131l401 -407l402 407l127 -131l-398 -407l398 -406l-131 -133l-398 408l-397 -408z" />
<glyph unicode="&#xd8;" horiz-adv-x="1323" d="M66 690q0 147 42 277.5t119.5 226.5t188 151.5t250.5 55.5q152 0 272 -66l98 158l166 -100l-106 -181q84 -98 122.5 -232t38.5 -275q0 -178 -44 -313.5t-123.5 -226.5t-188 -138t-237.5 -47q-154 0 -271 67l-106 -172l-158 115l107 180q-86 98 -128 232.5t-42 287.5z M362 694q0 -129 41 -243l3 2l399 655q-57 53 -141 53q-72 0 -127.5 -33.5t-94.5 -95t-59.5 -147.5t-20.5 -191zM524 272q53 -53 140 -53q139 0 218 128t79 349q0 55 -8.5 111.5t-26.5 114.5l-4 2z" />
<glyph unicode="&#xd9;" horiz-adv-x="1284" d="M127 584v796h299v-825q0 -172 57.5 -252t157.5 -80q104 0 160.5 78t56.5 254v825h299v-798q0 -305 -136 -453.5t-388 -148.5q-248 0 -377 147t-129 457zM311 1700h312l172 -244h-234z" />
<glyph unicode="&#xda;" horiz-adv-x="1284" d="M127 584v796h299v-825q0 -172 57.5 -252t157.5 -80q104 0 160.5 78t56.5 254v825h299v-798q0 -305 -136 -453.5t-388 -148.5q-248 0 -377 147t-129 457zM489 1454l173 246h311l-252 -246h-232z" />
<glyph unicode="&#xdb;" horiz-adv-x="1284" d="M127 584v796h299v-825q0 -172 57.5 -252t157.5 -80q104 0 160.5 78t56.5 254v825h299v-798q0 -305 -136 -453.5t-388 -148.5q-248 0 -377 147t-129 457zM352 1454l193 244h227l197 -244h-213l-94 121h-5l-96 -121h-209z" />
<glyph unicode="&#xdc;" horiz-adv-x="1284" d="M127 584v796h299v-825q0 -172 57.5 -252t157.5 -80q104 0 160.5 78t56.5 254v825h299v-798q0 -305 -136 -453.5t-388 -148.5q-248 0 -377 147t-129 457zM311 1597q0 59 40 98.5t95 39.5t93.5 -39t38.5 -99q0 -57 -38 -97t-94 -40h-2q-55 0 -94 40t-39 97zM723 1597 q0 59 39 98.5t96 39.5q55 0 93 -39t38 -99q0 -57 -38 -97t-93 -40h-2q-57 0 -95 40t-38 97z" />
<glyph unicode="&#xdd;" horiz-adv-x="1110" d="M4 1380h336l125 -331q29 -72 51.5 -136.5t44.5 -136.5h4q20 68 43 134.5t49 140.5l123 329h330l-412 -815v-565h-299v555zM428 1452l172 246h311l-252 -246h-231z" />
<glyph unicode="&#xde;" horiz-adv-x="1110" d="M131 0v1380h295v-243q27 2 58.5 4t84.5 2q111 0 198 -23.5t157 -83.5q66 -53 97.5 -132t31.5 -169q0 -127 -42 -215t-113 -143t-162 -81t-189 -26q-41 0 -72 2t-49 7v-279h-295zM426 516q20 -6 47 -8t59 -2q115 0 170.5 57.5t55.5 149.5t-54.5 145t-162.5 53 q-78 0 -115 -10v-385z" />
<glyph unicode="&#xdf;" horiz-adv-x="1163" d="M115 0v883q0 174 40 280.5t111 173.5q133 127 352 127q92 0 169 -26.5t132.5 -75.5t86 -117.5t30.5 -150.5q0 -45 -13 -91.5t-34 -74.5q-57 -29 -86 -65t-29 -75t18.5 -69.5t55.5 -71.5q57 -63 104.5 -137t47.5 -182q0 -158 -105.5 -253t-289.5 -95q-53 0 -108.5 7 t-96.5 23l37 221q29 -14 63.5 -20t73.5 -6q63 0 97 31.5t34 74.5q0 41 -19.5 74t-58.5 78q-27 27 -52.5 57.5t-47 64t-34.5 73.5t-13 87q0 78 41 143.5t114 106.5q16 33 17 80q0 68 -41 113t-111 45q-41 0 -74.5 -16.5t-58.5 -54.5t-39 -100.5t-14 -152.5v-909h-299z" />
<glyph unicode="&#xe0;" horiz-adv-x="1015" d="M53 285q0 98 41 169.5t115 119t174 70t219 22.5v16q0 23 -7 46.5t-26.5 41.5t-52.5 30.5t-84 12.5q-72 0 -139.5 -20.5t-116.5 -49.5l-53 193q49 29 142 57.5t222 28.5q123 0 203 -35t127 -94t65.5 -136t18.5 -163v-356q0 -68 3 -130.5t14 -107.5h-269l-18 100h-4 q-47 -59 -116 -89.5t-153 -30.5q-72 0 -128 24.5t-95 66.5t-60.5 97t-21.5 117zM193 1430h272l164 -304h-199zM344 315q0 -63 34 -92.5t81 -29.5q51 0 91 29.5t56 76.5q4 10 4 23.5v25.5v129q-53 0 -101 -8t-85 -26.5t-58.5 -49.5t-21.5 -78z" />
<glyph unicode="&#xe1;" horiz-adv-x="1015" d="M53 285q0 98 41 169.5t115 119t174 70t219 22.5v16q0 23 -7 46.5t-26.5 41.5t-52.5 30.5t-84 12.5q-72 0 -139.5 -20.5t-116.5 -49.5l-53 193q49 29 142 57.5t222 28.5q123 0 203 -35t127 -94t65.5 -136t18.5 -163v-356q0 -68 3 -130.5t14 -107.5h-269l-18 100h-4 q-47 -59 -116 -89.5t-153 -30.5q-72 0 -128 24.5t-95 66.5t-60.5 97t-21.5 117zM344 315q0 -63 34 -92.5t81 -29.5q51 0 91 29.5t56 76.5q4 10 4 23.5v25.5v129q-53 0 -101 -8t-85 -26.5t-58.5 -49.5t-21.5 -78zM379 1126l166 304h270l-235 -304h-201z" />
<glyph unicode="&#xe2;" horiz-adv-x="1015" d="M53 285q0 98 41 169.5t115 119t174 70t219 22.5v16q0 23 -7 46.5t-26.5 41.5t-52.5 30.5t-84 12.5q-72 0 -139.5 -20.5t-116.5 -49.5l-53 193q49 29 142 57.5t222 28.5q123 0 203 -35t127 -94t65.5 -136t18.5 -163v-356q0 -68 3 -130.5t14 -107.5h-269l-18 100h-4 q-47 -59 -116 -89.5t-153 -30.5q-72 0 -128 24.5t-95 66.5t-60.5 97t-21.5 117zM207 1126l194 304h203l195 -304h-197l-96 174h-4l-96 -174h-199zM344 315q0 -63 34 -92.5t81 -29.5q51 0 91 29.5t56 76.5q4 10 4 23.5v25.5v129q-53 0 -101 -8t-85 -26.5t-58.5 -49.5 t-21.5 -78z" />
<glyph unicode="&#xe3;" horiz-adv-x="1015" d="M53 285q0 98 41 169.5t115 119t174 70t219 22.5v16q0 23 -7 46.5t-26.5 41.5t-52.5 30.5t-84 12.5q-72 0 -139.5 -20.5t-116.5 -49.5l-53 193q49 29 142 57.5t222 28.5q123 0 203 -35t127 -94t65.5 -136t18.5 -163v-356q0 -68 3 -130.5t14 -107.5h-269l-18 100h-4 q-47 -59 -116 -89.5t-153 -30.5q-72 0 -128 24.5t-95 66.5t-60.5 97t-21.5 117zM217 1141q-4 123 39 192.5t121 69.5q39 0 69.5 -13.5t59.5 -29.5q25 -14 45 -25.5t39 -11.5q25 0 36 16.5t15 69.5h135q4 -135 -40 -194.5t-120 -59.5q-39 0 -70.5 13.5t-62.5 29.5 q-27 14 -42 23.5t-35 9.5q-45 0 -50 -90h-139zM344 315q0 -63 34 -92.5t81 -29.5q51 0 91 29.5t56 76.5q4 10 4 23.5v25.5v129q-53 0 -101 -8t-85 -26.5t-58.5 -49.5t-21.5 -78z" />
<glyph unicode="&#xe4;" horiz-adv-x="1015" d="M53 285q0 98 41 169.5t115 119t174 70t219 22.5v16q0 23 -7 46.5t-26.5 41.5t-52.5 30.5t-84 12.5q-72 0 -139.5 -20.5t-116.5 -49.5l-53 193q49 29 142 57.5t222 28.5q123 0 203 -35t127 -94t65.5 -136t18.5 -163v-356q0 -68 3 -130.5t14 -107.5h-269l-18 100h-4 q-47 -59 -116 -89.5t-153 -30.5q-72 0 -128 24.5t-95 66.5t-60.5 97t-21.5 117zM164 1284q0 59 41 99t100 40q55 0 94 -40t39 -99t-38 -100t-95 -41h-2q-59 0 -99 41t-40 100zM344 315q0 -63 34 -92.5t81 -29.5q51 0 91 29.5t56 76.5q4 10 4 23.5v25.5v129q-53 0 -101 -8 t-85 -26.5t-58.5 -49.5t-21.5 -78zM575 1284q0 59 40 99t100 40q57 0 96 -40t39 -99t-38 -100t-97 -41h-4q-57 0 -96.5 41t-39.5 100z" />
<glyph unicode="&#xe5;" horiz-adv-x="1015" d="M53 285q0 98 41 169.5t115 119t174 70t219 22.5v16q0 23 -7 46.5t-26.5 41.5t-52.5 30.5t-84 12.5q-72 0 -139.5 -20.5t-116.5 -49.5l-53 193q49 29 143 57.5t223 28.5q121 0 201 -35t127 -94t65.5 -136t18.5 -163v-356q0 -68 3 -130.5t14 -107.5h-269l-18 100h-4 q-47 -59 -116 -89.5t-153 -30.5q-72 0 -128 24.5t-95 66.5t-60.5 97t-21.5 117zM283 1296q0 84 58 142.5t171 58.5h2q111 0 167 -56.5t56 -142.5q0 -84 -60.5 -139t-164.5 -55q-109 0 -169 55t-60 137zM344 315q0 -63 35 -92.5t82 -29.5q49 0 89 29.5t56 76.5q4 10 4 23.5 v25.5v129q-53 0 -101 -8t-85 -26.5t-58.5 -49.5t-21.5 -78zM422 1296q0 -31 21.5 -62.5t66.5 -31.5q47 0 69.5 31t22.5 67q0 37 -22.5 68t-69.5 31h-2q-45 0 -65.5 -32t-20.5 -71z" />
<glyph unicode="&#xe6;" horiz-adv-x="1540" d="M53 293q0 92 42 160.5t116 112.5t174 66.5t219 22.5v29q0 16 -8 37.5t-28.5 42t-55.5 34t-88 13.5q-70 0 -135.5 -21.5t-108.5 -48.5l-57 193q55 31 143 59.5t191 28.5q113 0 189.5 -41t117.5 -119h6q53 78 135 119t185 41q100 0 173.5 -40t122 -107.5t72 -156.5 t23.5 -186q0 -31 -2 -60.5t-6 -49.5h-586q2 -111 73.5 -166t182.5 -55q82 0 140 13t110 36l41 -201q-78 -41 -165 -55t-173 -14q-117 0 -215.5 45t-147.5 131h-6q-55 -82 -141 -129t-207 -47q-76 0 -136.5 24.5t-102.5 66.5t-64.5 99t-22.5 123zM340 311q0 -59 36 -88.5 t83 -29.5q53 0 90 28.5t53 71.5q10 20 10 59v119q-55 0 -104 -7t-86 -25.5t-59.5 -50.5t-22.5 -77zM885 621h321q0 31 -6 65.5t-22.5 65t-47 51t-75.5 20.5t-77 -20.5t-52.5 -51t-30.5 -66.5t-10 -64z" />
<glyph unicode="&#xe7;" horiz-adv-x="843" d="M66 489q0 113 35.5 209.5t104 168t169 112.5t229.5 41q57 0 113.5 -10.5t97.5 -26.5l-45 -223q-25 10 -61.5 18t-90.5 8q-117 0 -183 -79.5t-66 -204.5q0 -137 71.5 -211t180.5 -74q47 0 85.5 8t69.5 21l33 -223q-31 -14 -86 -25.5t-123 -13.5l-39 -74q57 -12 101.5 -52 t44.5 -110q0 -53 -21.5 -88t-55.5 -57.5t-77 -31.5t-86 -9t-88 9t-80 30l41 123q23 -12 53.5 -20.5t57.5 -8.5q29 0 50 11t21 40q0 31 -36.5 49.5t-116.5 26.5l77 172q-178 31 -279 160t-101 335z" />
<glyph unicode="&#xe8;" horiz-adv-x="1013" d="M66 485q0 104 30.5 201.5t90 171.5t147.5 119t205 45q111 0 188.5 -40t128.5 -107.5t74.5 -156.5t23.5 -188q0 -45 -3 -77.5t-7 -51.5h-592q2 -51 23.5 -88t57.5 -61.5t82 -35.5t97 -11q72 0 133.5 10t116.5 29l41 -205q-72 -29 -158 -43t-180 -14q-240 0 -369.5 134 t-129.5 369zM231 1430h271l164 -304h-199zM350 608h328q0 33 -7 70t-24.5 67.5t-48.5 51t-76 20.5q-43 0 -74.5 -20.5t-52 -51t-32 -67.5t-13.5 -70z" />
<glyph unicode="&#xe9;" horiz-adv-x="1013" d="M66 485q0 104 30.5 201.5t90 171.5t147.5 119t205 45q111 0 188.5 -40t128.5 -107.5t74.5 -156.5t23.5 -188q0 -45 -3 -77.5t-7 -51.5h-592q2 -51 23.5 -88t57.5 -61.5t82 -35.5t97 -11q72 0 133.5 10t116.5 29l41 -205q-72 -29 -158 -43t-180 -14q-240 0 -369.5 134 t-129.5 369zM350 608h328q0 33 -7 70t-24.5 67.5t-48.5 51t-76 20.5q-43 0 -74.5 -20.5t-52 -51t-32 -67.5t-13.5 -70zM418 1126l166 304h270l-236 -304h-200z" />
<glyph unicode="&#xea;" horiz-adv-x="1013" d="M66 485q0 104 30.5 201.5t90 171.5t147.5 119t205 45q111 0 188.5 -40t128.5 -107.5t74.5 -156.5t23.5 -188q0 -45 -3 -77.5t-7 -51.5h-592q2 -51 23.5 -88t57.5 -61.5t82 -35.5t97 -11q72 0 133.5 10t116.5 29l41 -205q-72 -29 -158 -43t-180 -14q-240 0 -369.5 134 t-129.5 369zM238 1126l194 304h201l194 -304h-196l-96 174h-5l-96 -174h-196zM350 608h328q0 33 -7 70t-24.5 67.5t-48.5 51t-76 20.5q-43 0 -74.5 -20.5t-52 -51t-32 -67.5t-13.5 -70z" />
<glyph unicode="&#xeb;" horiz-adv-x="1013" d="M66 485q0 104 30.5 201.5t90 171.5t147.5 119t205 45q111 0 188.5 -40t128.5 -107.5t74.5 -156.5t23.5 -188q0 -45 -3 -77.5t-7 -51.5h-594q2 -51 24.5 -88t58.5 -61.5t82 -35.5t97 -11q72 0 133.5 10t116.5 29l41 -205q-72 -29 -158 -43t-180 -14q-240 0 -369.5 134 t-129.5 369zM201 1284q0 59 40 99t99 40q55 0 94 -40t39 -99t-38 -100t-95 -41h-2q-59 0 -98 41t-39 100zM348 608h330q0 33 -7 70t-24.5 67.5t-48.5 51t-76 20.5t-76.5 -20.5t-52 -51t-32 -67.5t-13.5 -70zM610 1284q0 59 40 99t100 40q57 0 96 -40t39 -99t-38 -100 t-97 -41h-5q-57 0 -96 41t-39 100z" />
<glyph unicode="&#xec;" horiz-adv-x="530" d="M-59 1430h270l166 -304h-201zM115 0v1001h299v-1001h-299z" />
<glyph unicode="&#xed;" horiz-adv-x="530" d="M115 0v1001h299v-1001h-299zM145 1126l164 304h273l-238 -304h-199z" />
<glyph unicode="&#xee;" horiz-adv-x="530" d="M-31 1126l197 304h201l194 -304h-196l-97 174h-4l-96 -174h-199zM115 0v1001h299v-1001h-299z" />
<glyph unicode="&#xef;" horiz-adv-x="530" d="M-78 1284q0 59 41 99t100 40q55 0 93.5 -40t38.5 -99t-37 -100t-95 -41h-2q-59 0 -99 41t-40 100zM115 0v1001h299v-1001h-299zM334 1284q0 59 40 99t99 40q57 0 96 -40t39 -99t-38 -100t-97 -41h-4q-57 0 -96 41t-39 100z" />
<glyph unicode="&#xf0;" horiz-adv-x="1087" d="M66 489q0 113 34.5 201t93 149.5t135.5 96.5t163 39q35 2 67.5 -4t67.5 -29l4 8q-33 47 -73 89t-87 77l-264 -121l-55 113l198 94q-39 29 -82 53.5t-90 47.5l141 161q70 -29 140.5 -67.5t136.5 -85.5l254 114l61 -112l-200 -90q72 -59 128 -134t99 -159 q45 -88 64.5 -188.5t19.5 -213.5q0 -150 -43 -254t-111.5 -169.5t-154.5 -95t-172 -29.5q-104 0 -191.5 34.5t-150 101t-98 161t-35.5 212.5zM371 494q0 -61 11 -114.5t32.5 -94.5t54.5 -64.5t76 -23.5h2q43 0 75.5 23.5t53 63.5t31 94t10.5 118q0 78 -8.5 132t-30.5 91 q-23 33 -52.5 53.5t-76.5 20.5q-51 0 -86 -30t-55.5 -75t-28.5 -97t-8 -97z" />
<glyph unicode="&#xf1;" horiz-adv-x="1120" d="M106 1001h261l14 -131h6q16 25 43 52.5t62.5 49t82 36t101.5 14.5q152 0 242 -104.5t90 -309.5v-608h-299v578q0 86 -32 143t-110 57q-55 0 -90 -32.5t-51 -75.5q-10 -35 -10 -82v-588h-301v686q0 92 -2 169t-7 146zM285 1141q-4 123 40 192.5t121 69.5q39 0 70 -13.5 t59 -29.5q25 -14 45.5 -25.5t38.5 -11.5q25 0 36.5 16.5t15.5 69.5h135q4 -135 -39 -194.5t-121 -59.5q-39 0 -70.5 13.5t-60.5 29.5q-29 14 -44 23.5t-36 9.5q-45 0 -49 -90h-141z" />
<glyph unicode="&#xf2;" horiz-adv-x="1091" d="M66 496q0 125 36.5 222t102 164.5t156 103.5t196.5 36t192.5 -37t147.5 -104.5t95 -162.5t34 -210q0 -143 -43 -243.5t-111.5 -164t-154.5 -92t-172 -28.5h-2q-104 0 -191.5 34.5t-151 101t-99 163t-35.5 217.5zM244 1430h270l164 -304h-199zM371 502q0 -66 11 -121 t33.5 -96t55.5 -64.5t78 -23.5h2q41 0 72.5 23.5t53 65.5t33 97t11.5 119q0 55 -9.5 109.5t-29.5 97.5t-53 69.5t-80 26.5q-49 0 -84 -26.5t-55.5 -69.5t-29.5 -97.5t-9 -109.5z" />
<glyph unicode="&#xf3;" horiz-adv-x="1091" d="M66 496q0 125 36.5 222t102 164.5t156 103.5t196.5 36t192.5 -37t147.5 -104.5t95 -162.5t34 -210q0 -143 -43 -243.5t-111.5 -164t-154.5 -92t-172 -28.5h-2q-104 0 -191.5 34.5t-151 101t-99 163t-35.5 217.5zM371 502q0 -66 11 -121t33.5 -96t55.5 -64.5t78 -23.5h2 q41 0 72.5 23.5t53 65.5t33 97t11.5 119q0 55 -9.5 109.5t-29.5 97.5t-53 69.5t-80 26.5q-49 0 -84 -26.5t-55.5 -69.5t-29.5 -97.5t-9 -109.5zM424 1126l166 304h270l-237 -304h-199z" />
<glyph unicode="&#xf4;" horiz-adv-x="1091" d="M66 496q0 125 36.5 222t102 164.5t156 103.5t196.5 36t192.5 -37t147.5 -104.5t95 -162.5t34 -210q0 -143 -43 -243.5t-111.5 -164t-154.5 -92t-172 -28.5h-2q-104 0 -191.5 34.5t-151 101t-99 163t-35.5 217.5zM252 1126l194 304h201l195 -304h-197l-96 174h-4l-96 -174 h-197zM371 502q0 -66 11 -121t33.5 -96t55.5 -64.5t78 -23.5h2q41 0 72.5 23.5t53 65.5t33 97t11.5 119q0 55 -9.5 109.5t-29.5 97.5t-53 69.5t-80 26.5q-49 0 -84 -26.5t-55.5 -69.5t-29.5 -97.5t-9 -109.5z" />
<glyph unicode="&#xf5;" horiz-adv-x="1091" d="M66 496q0 125 36.5 222t102 164.5t155 103.5t195.5 36t193.5 -37t148.5 -104.5t95 -162.5t34 -210q0 -143 -43 -243.5t-111.5 -164t-155.5 -92t-173 -28.5h-2q-102 0 -189.5 34.5t-151 101t-99 163t-35.5 217.5zM268 1141q-4 123 38 192.5t120 69.5q39 0 69.5 -13.5 t59.5 -29.5q25 -14 45.5 -25.5t38.5 -11.5q25 0 36 16.5t15 69.5h135q4 -135 -40 -194.5t-119 -59.5q-39 0 -71 13.5t-60 29.5q-29 14 -44.5 23.5t-35.5 9.5q-45 0 -49 -90h-138zM369 502q0 -66 11 -121t33.5 -96t55.5 -64.5t78 -23.5h2q43 0 74.5 23.5t53 65.5t33 97 t11.5 119q0 55 -9.5 109.5t-29.5 97.5t-53 69.5t-80 26.5q-51 0 -85 -26.5t-55.5 -69.5t-30.5 -97.5t-9 -109.5z" />
<glyph unicode="&#xf6;" horiz-adv-x="1091" d="M66 496q0 125 36.5 222t102 164.5t156 103.5t196.5 36t192.5 -37t147.5 -104.5t95 -162.5t34 -210q0 -143 -43 -243.5t-111.5 -164t-154.5 -92t-172 -28.5h-2q-104 0 -191.5 34.5t-151 101t-99 163t-35.5 217.5zM203 1284q0 59 41 99t100 40q55 0 94 -40t39 -99t-38 -100 t-95 -41h-2q-59 0 -99 41t-40 100zM371 502q0 -66 11 -121t33.5 -96t55.5 -64.5t78 -23.5h2q41 0 73.5 23.5t54 65.5t33 97t11.5 119q0 55 -9 109.5t-29.5 97.5t-53.5 69.5t-80 26.5q-51 0 -85 -26.5t-55.5 -69.5t-30.5 -97.5t-9 -109.5zM614 1284q0 59 40 99t100 40 q57 0 95 -40t38 -99t-38 -100t-95 -41h-4q-57 0 -96.5 41t-39.5 100z" />
<glyph unicode="&#xf7;" horiz-adv-x="1220" d="M82 455v184h1057v-184h-1057zM471 190q0 66 39 105t102 39t101.5 -39t38.5 -105q0 -63 -38 -103t-104 -40h-2q-61 0 -99 40t-38 103zM471 903q0 66 39 105t102 39t101.5 -39t38.5 -105q0 -63 -38 -103t-104 -40h-2q-61 0 -99 40t-38 103z" />
<glyph unicode="&#xf8;" horiz-adv-x="1091" d="M66 498q0 123 36.5 220t101 164.5t152.5 103.5t191 36h2q121 0 223 -53l86 135l113 -72l-92 -141q72 -68 109.5 -166t37.5 -221q0 -141 -43 -240.5t-111.5 -162t-153.5 -92t-169 -29.5q-127 0 -223 51l-88 -135l-107 77l86 136q-72 66 -111.5 163t-39.5 226zM350 502 q0 -39 5 -77t22 -73l6 -2l264 414q-20 20 -43.5 30.5t-58.5 10.5q-55 0 -92 -28.5t-60.5 -74t-33 -98.5t-9.5 -102zM451 238q35 -41 96 -41q47 0 84 22.5t61.5 62.5t36.5 93t12 114q0 35 -5 75t-19 75l-6 2z" />
<glyph unicode="&#xf9;" horiz-adv-x="1114" d="M111 408v593h299v-548q0 -109 32.5 -169.5t106.5 -60.5q55 0 88 31t47 65q12 27 12 72v610h299v-684q0 -94 2 -172.5t7 -144.5h-259l-14 131h-6q-16 -25 -41 -51.5t-59.5 -49t-81.5 -36.5t-107 -14q-150 0 -237.5 102t-87.5 326zM248 1430h272l164 -304h-199z" />
<glyph unicode="&#xfa;" horiz-adv-x="1114" d="M111 408v593h299v-548q0 -109 32.5 -169.5t106.5 -60.5q55 0 88 31t47 65q12 27 12 72v610h299v-684q0 -94 2 -172.5t7 -144.5h-259l-14 131h-6q-16 -25 -41 -51.5t-59.5 -49t-81.5 -36.5t-107 -14q-150 0 -237.5 102t-87.5 326zM440 1126l166 304h271l-236 -304h-201z " />
<glyph unicode="&#xfb;" horiz-adv-x="1114" d="M111 408v593h299v-548q0 -109 32.5 -169.5t106.5 -60.5q55 0 88 31t47 65q12 27 12 72v610h299v-684q0 -94 2 -172.5t7 -144.5h-259l-14 131h-6q-16 -25 -41 -51.5t-59.5 -49t-81.5 -36.5t-107 -14q-150 0 -237.5 102t-87.5 326zM262 1126l195 304h202l195 -304h-197 l-98 174h-4l-96 -174h-197z" />
<glyph unicode="&#xfc;" horiz-adv-x="1114" d="M111 408v593h299v-548q0 -109 32.5 -169.5t106.5 -60.5q55 0 88 31t47 65q12 27 12 72v610h299v-684q0 -94 2 -172.5t7 -144.5h-259l-14 131h-6q-16 -25 -41 -51.5t-59.5 -49t-81.5 -36.5t-107 -14q-150 0 -237.5 102t-87.5 326zM219 1284q0 59 41 99t100 40 q55 0 94.5 -40t39.5 -99t-38 -100t-96 -41h-2q-59 0 -99 41t-40 100zM631 1284q0 59 40 99t99 40q57 0 96 -40t39 -99t-38 -100t-97 -41h-4q-57 0 -96 41t-39 100z" />
<glyph unicode="&#xfd;" horiz-adv-x="989" d="M12 1001h328l135 -501q10 -45 21.5 -92.5t21.5 -88.5h6q10 41 19.5 89.5t19.5 91.5l111 501h311l-223 -694q-43 -127 -82 -222t-77 -169t-76 -127t-81 -94q-76 -72 -151.5 -104.5t-126.5 -39.5l-70 252q61 14 135 64q33 20 64 54t51 69q16 27 17 45q0 12 -13 47z M395 1126l166 304h273l-238 -304h-201z" />
<glyph unicode="&#xfe;" horiz-adv-x="1130" d="M115 -401v1781h297v-501h4q41 66 108.5 104.5t161.5 38.5q80 0 148.5 -36t120 -103.5t81 -162.5t29.5 -214q0 -137 -37 -236.5t-95.5 -164t-131 -95t-144.5 -30.5q-86 0 -146 33.5t-93 80.5h-4v-495h-299zM414 397q0 -25 7 -51.5t17 -42.5q23 -43 58.5 -66.5t78.5 -23.5 q90 0 139.5 80t49.5 209q0 123 -47 201.5t-133 78.5q-51 0 -91 -28.5t-61 -75.5q-8 -16 -13 -38t-5 -42v-201z" />
<glyph unicode="&#xff;" horiz-adv-x="989" d="M12 1001h328l135 -501q10 -45 21.5 -92.5t21.5 -88.5h6q8 41 17.5 89.5t19.5 91.5l113 501h311l-225 -694q-43 -127 -82 -222t-76 -169t-75 -127t-81 -94q-76 -72 -151.5 -104.5t-126.5 -39.5l-70 252q63 16 133 64q35 20 66 54t51 69q6 12 11.5 23.5t5.5 21.5 q0 12 -13 47zM170 1284q0 59 41 99t100 40q55 0 94 -40t39 -99t-37.5 -100t-95.5 -41h-2q-59 0 -99 41t-40 100zM582 1284q0 59 40 99t99 40q57 0 96 -40t39 -99t-38 -100t-97 -41h-4q-57 0 -96 41t-39 100z" />
<glyph unicode="&#x152;" horiz-adv-x="1740" d="M66 684q0 158 44 290t128 227t202.5 147.5t270.5 52.5q47 0 86 -3t71 -7q33 -4 60.5 -7.5t52.5 -3.5h657v-247h-475v-297h451v-244h-451v-344h504v-248h-706q-27 0 -54.5 -3t-58.5 -7t-67 -7t-76 -3q-170 0 -292 58t-199 155.5t-112.5 224.5t-35.5 266zM381 692 q-2 -221 93 -345t269 -124q33 0 66 6.5t55 16.5v884q-53 27 -139 27q-70 0 -132.5 -28.5t-110.5 -87t-74.5 -145.5t-26.5 -204z" />
<glyph unicode="&#x153;" horiz-adv-x="1654" d="M66 498q0 123 36.5 220t100 164.5t149.5 103.5t187 36q98 0 186 -43t135 -133h4q59 88 143.5 132t186.5 44q104 0 180 -40t125 -107.5t72.5 -156.5t23.5 -188q0 -39 -3 -71.5t-5 -48.5h-586q6 -102 80 -154.5t174 -52.5q82 0 140.5 13t111.5 34l41 -201q-76 -43 -169 -56 t-165 -13q-104 0 -195 37.5t-155 136.5h-4q-57 -92 -150.5 -133t-193.5 -41q-94 0 -176 34.5t-143.5 101t-96 163t-34.5 219.5zM371 500q0 -63 11 -118.5t32.5 -96.5t54.5 -64.5t78 -23.5t77.5 23.5t54 64.5t32 97t10.5 122q0 55 -9.5 109.5t-29.5 97.5t-53 68.5t-80 25.5 h-2q-51 0 -85 -28.5t-54.5 -73t-28.5 -98.5t-8 -105zM999 608h320q0 33 -5 70t-22.5 67.5t-47.5 51t-77 20.5q-43 0 -74.5 -20.5t-52 -51t-31 -67.5t-10.5 -70z" />
<glyph unicode="&#x178;" horiz-adv-x="1110" d="M4 1380h336l125 -331q29 -72 51.5 -136.5t44.5 -136.5h4q20 68 43 134.5t49 140.5l123 329h330l-412 -815v-565h-299v555zM233 1593q0 59 40 98.5t96 39.5q55 0 93 -39t38 -99q0 -57 -38 -97t-93 -40h-2q-55 0 -94.5 40t-39.5 97zM643 1593q0 59 39 98.5t96 39.5 q55 0 93 -39t38 -99q0 -57 -37.5 -97t-93.5 -40h-2q-57 0 -95 40t-38 97z" />
<glyph unicode="&#x2c6;" horiz-adv-x="614" d="M12 1126l195 304h203l194 -304h-196l-97 174h-4l-96 -174h-199z" />
<glyph unicode="&#x2dc;" horiz-adv-x="614" d="M29 1141q-4 123 39 192.5t120 69.5q39 0 70 -13.5t59 -29.5q25 -14 45.5 -25.5t38.5 -11.5q25 0 36.5 16.5t15.5 69.5h135q4 -135 -40 -194.5t-120 -59.5q-39 0 -70.5 13.5t-60.5 29.5q-29 14 -44 23.5t-36 9.5q-45 0 -49 -90h-139z" />
<glyph unicode="&#x2000;" horiz-adv-x="915" />
<glyph unicode="&#x2001;" horiz-adv-x="1831" />
<glyph unicode="&#x2002;" horiz-adv-x="915" />
<glyph unicode="&#x2003;" horiz-adv-x="1831" />
<glyph unicode="&#x2004;" horiz-adv-x="610" />
<glyph unicode="&#x2005;" horiz-adv-x="457" />
<glyph unicode="&#x2006;" horiz-adv-x="305" />
<glyph unicode="&#x2007;" horiz-adv-x="305" />
<glyph unicode="&#x2008;" horiz-adv-x="228" />
<glyph unicode="&#x2009;" horiz-adv-x="366" />
<glyph unicode="&#x200a;" horiz-adv-x="101" />
<glyph unicode="&#x2010;" horiz-adv-x="620" d="M61 444v203h498v-203h-498z" />
<glyph unicode="&#x2011;" horiz-adv-x="620" d="M61 444v203h498v-203h-498z" />
<glyph unicode="&#x2012;" horiz-adv-x="620" d="M61 444v203h498v-203h-498z" />
<glyph unicode="&#x2013;" horiz-adv-x="1024" d="M61 430v188h902v-188h-902z" />
<glyph unicode="&#x2014;" horiz-adv-x="2048" d="M61 430v188h1926v-188h-1926z" />
<glyph unicode="&#x2018;" horiz-adv-x="489" d="M43 852q47 147 109.5 286.5t132.5 254.5l174 18q-47 -131 -84 -269t-58 -270z" />
<glyph unicode="&#x2019;" horiz-adv-x="489" d="M39 852q47 131 84 270.5t57 270.5l275 20q-47 -147 -109.5 -287.5t-132.5 -255.5z" />
<glyph unicode="&#x201a;" horiz-adv-x="489" d="M25 -215q47 131 83.5 269.5t57.5 269.5l274 20q-47 -147 -109.5 -286.5t-131.5 -254.5z" />
<glyph unicode="&#x201c;" horiz-adv-x="858" d="M39 852q47 147 109.5 286.5t132.5 254.5l174 18q-47 -131 -84 -269t-58 -270zM414 852q47 147 109.5 286.5t131.5 254.5l174 18q-47 -131 -83.5 -269t-57.5 -270z" />
<glyph unicode="&#x201d;" horiz-adv-x="858" d="M35 852q47 131 84 270.5t57 270.5l275 20q-47 -147 -109.5 -287.5t-132.5 -255.5zM410 852q47 131 83.5 270.5t57.5 270.5l274 20q-47 -147 -109.5 -287.5t-131.5 -255.5z" />
<glyph unicode="&#x201e;" horiz-adv-x="864" d="M23 -215q47 131 83.5 269.5t57.5 269.5l274 20q-47 -147 -109.5 -286.5t-131.5 -254.5zM397 -215q47 131 84 269.5t58 269.5l274 20q-47 -147 -109.5 -286.5t-132.5 -254.5z" />
<glyph unicode="&#x2022;" horiz-adv-x="661" d="M78 537q0 55 19.5 102t53 81t79.5 53.5t100 19.5q51 0 97 -19.5t81 -53.5t54.5 -80t19.5 -101t-19.5 -101.5t-53.5 -80t-80 -53t-99 -19.5h-2q-51 0 -97.5 18.5t-80 52t-53 79.5t-19.5 102z" />
<glyph unicode="&#x2026;" horiz-adv-x="2048" d="M166 166q0 82 50 134t126 52t125 -50t49 -136q0 -84 -48 -135t-128 -51h-2q-74 0 -123 51t-49 135zM850 166q0 82 50 134t126 52t125 -50t49 -136q0 -84 -48 -135t-128 -51h-2q-74 0 -123 51t-49 135zM1534 166q0 82 50 134t126 52t125 -50t49 -136q0 -84 -48 -135 t-128 -51h-2q-74 0 -123 51t-49 135z" />
<glyph unicode="&#x202f;" horiz-adv-x="366" />
<glyph unicode="&#x2039;" horiz-adv-x="522" d="M47 516l229 387h211l-237 -387l237 -387h-208z" />
<glyph unicode="&#x203a;" horiz-adv-x="522" d="M35 129l237 387l-237 387h207l233 -387l-231 -387h-209z" />
<glyph unicode="&#x205f;" horiz-adv-x="457" />
<glyph unicode="&#x20ac;" d="M23 479v144h106v30q0 16 1 32.5t1 33.5h-108v143h129q16 88 51 159t82 126q80 98 191.5 151.5t250.5 53.5q86 0 154.5 -16.5t115.5 -39.5l-53 -229q-35 16 -88 30.5t-113 14.5q-66 0 -123 -24.5t-100 -79.5q-45 -55 -63 -146h450v-143h-477q-2 -16 -2 -32.5v-35.5v-28 h479v-144h-456q18 -100 65 -157q43 -51 104.5 -74t131.5 -23q61 0 119.5 16.5t89.5 32.5l43 -225q-45 -25 -122 -47t-167 -22q-131 0 -249 52t-198 156q-45 53 -75.5 125t-47.5 166h-122z" />
<glyph unicode="&#x2122;" horiz-adv-x="1261" d="M53 1245v135h461v-135h-147v-424h-168v424h-146zM553 821l31 559h252l34 -135q8 -35 14.5 -72.5t16.5 -107.5h2q10 51 18.5 94t16.5 84l39 137h233l29 -559h-156l-10 246q-2 47 -1 99.5t-1 117.5h-8q-12 -61 -23.5 -117.5t-21.5 -99.5l-51 -236h-158l-45 238 q-6 41 -14.5 100.5t-18.5 114.5h-8q-2 -57 -2 -113.5t-4 -103.5l-10 -246h-154z" />
</font>
</defs>
</svg>
